<?xml version="1.0" encoding="UTF-8"?>
<svg xmlns="http://www.w3.org/2000/svg" xmlns:xlink="http://www.w3.org/1999/xlink" width="453.543pt" height="255.118pt" viewBox="0 0 453.543 255.118">
<defs>
<g>
<g id="glyph-0-0">
<path d="M 2.59375 -5.578125 C 2.59375 -5.78125 2.453125 -5.90625 2.25 -5.90625 C 2.015625 -5.90625 1.765625 -5.671875 1.765625 -5.4375 C 1.765625 -5.25 1.90625 -5.109375 2.109375 -5.109375 C 2.34375 -5.109375 2.59375 -5.328125 2.59375 -5.578125 Z M 2.71875 -1.28125 C 2.71875 -1.328125 2.6875 -1.390625 2.59375 -1.390625 C 2.5 -1.390625 2.5 -1.34375 2.453125 -1.21875 C 2.25 -0.484375 1.875 -0.125 1.53125 -0.125 C 1.390625 -0.125 1.328125 -0.203125 1.328125 -0.421875 C 1.328125 -0.640625 1.390625 -0.828125 1.46875 -1 C 1.625 -1.4375 1.625 -1.453125 1.75 -1.71875 C 1.890625 -2.109375 2.078125 -2.625 2.171875 -2.875 C 2.234375 -3.03125 2.234375 -3.125 2.234375 -3.203125 C 2.234375 -3.703125 1.828125 -3.953125 1.46875 -3.953125 C 0.609375 -3.953125 0.265625 -2.671875 0.265625 -2.578125 C 0.265625 -2.5 0.328125 -2.46875 0.390625 -2.46875 C 0.484375 -2.46875 0.484375 -2.515625 0.53125 -2.640625 C 0.71875 -3.265625 1.046875 -3.734375 1.453125 -3.734375 C 1.53125 -3.734375 1.65625 -3.703125 1.65625 -3.4375 C 1.65625 -3.21875 1.578125 -2.984375 1.5 -2.78125 L 0.859375 -1.125 C 0.796875 -0.953125 0.734375 -0.8125 0.734375 -0.65625 C 0.734375 -0.234375 1.046875 0.09375 1.515625 0.09375 C 2.375 0.09375 2.71875 -1.1875 2.71875 -1.28125 Z M 2.71875 -1.28125 "/>
</g>
<g id="glyph-0-1">
<path d="M 4.4375 -6.109375 C 4.4375 -6.109375 4.4375 -6.203125 4.328125 -6.203125 C 4.21875 -6.203125 4.203125 -6.15625 4.171875 -6.015625 L 2.703125 -0.140625 C 2.0625 -0.21875 1.65625 -0.515625 1.65625 -1.140625 C 1.65625 -1.328125 1.6875 -1.59375 2.125 -2.703125 C 2.1875 -2.890625 2.25 -3.03125 2.25 -3.203125 C 2.25 -3.640625 1.90625 -3.953125 1.46875 -3.953125 C 0.609375 -3.953125 0.265625 -2.6875 0.265625 -2.578125 C 0.265625 -2.5 0.328125 -2.46875 0.390625 -2.46875 C 0.484375 -2.46875 0.484375 -2.515625 0.53125 -2.640625 C 0.71875 -3.28125 1.078125 -3.734375 1.453125 -3.734375 C 1.625 -3.734375 1.65625 -3.609375 1.65625 -3.4375 C 1.65625 -3.21875 1.59375 -3.03125 1.53125 -2.84375 C 1.09375 -1.71875 1.03125 -1.421875 1.03125 -1.203125 C 1.03125 -0.546875 1.46875 0 2.640625 0.078125 L 2.25 1.734375 C 2.25 1.75 2.25 1.828125 2.359375 1.828125 C 2.46875 1.828125 2.46875 1.8125 2.515625 1.609375 C 2.640625 1.109375 2.78125 0.609375 2.890625 0.09375 C 3.21875 0.09375 4.140625 0.09375 5.046875 -1.015625 C 5.46875 -1.5625 5.625 -2 5.78125 -2.8125 C 5.828125 -3.078125 5.828125 -3.203125 5.828125 -3.296875 C 5.828125 -3.921875 5.5 -3.953125 5.421875 -3.953125 C 5.1875 -3.953125 4.953125 -3.71875 4.953125 -3.515625 C 4.953125 -3.375 5.046875 -3.3125 5.109375 -3.25 C 5.34375 -3.03125 5.421875 -2.75 5.421875 -2.515625 C 5.421875 -2.140625 5.171875 -1.453125 4.578125 -0.859375 C 3.875 -0.15625 3.28125 -0.125 2.953125 -0.125 Z M 4.4375 -6.109375 "/>
</g>
<g id="glyph-0-2">
<path d="M 3.421875 -3.390625 C 3.25 -3.71875 2.96875 -3.953125 2.5625 -3.953125 C 1.53125 -3.953125 0.375 -2.71875 0.375 -1.34375 C 0.375 -0.359375 1 0.09375 1.59375 0.09375 C 2.1875 0.09375 2.65625 -0.390625 2.796875 -0.546875 C 2.890625 -0.0625 3.34375 0.09375 3.625 0.09375 C 3.890625 0.09375 4.109375 -0.015625 4.3125 -0.390625 C 4.46875 -0.6875 4.59375 -1.25 4.59375 -1.28125 C 4.59375 -1.328125 4.5625 -1.390625 4.484375 -1.390625 C 4.375 -1.390625 4.359375 -1.34375 4.328125 -1.171875 C 4.125 -0.390625 3.9375 -0.125 3.65625 -0.125 C 3.4375 -0.125 3.375 -0.34375 3.375 -0.53125 C 3.375 -0.703125 3.421875 -0.890625 3.5 -1.203125 L 3.734375 -2.125 C 3.796875 -2.34375 3.953125 -3.015625 3.984375 -3.140625 C 4.015625 -3.265625 4.078125 -3.484375 4.078125 -3.515625 C 4.078125 -3.65625 3.953125 -3.765625 3.796875 -3.765625 C 3.6875 -3.765625 3.453125 -3.703125 3.421875 -3.390625 Z M 2.828125 -1.09375 C 2.78125 -0.921875 2.78125 -0.90625 2.640625 -0.734375 C 2.328125 -0.359375 1.953125 -0.125 1.625 -0.125 C 1.1875 -0.125 1.03125 -0.578125 1.03125 -0.96875 C 1.03125 -1.40625 1.296875 -2.4375 1.515625 -2.859375 C 1.796875 -3.390625 2.203125 -3.734375 2.5625 -3.734375 C 3.15625 -3.734375 3.296875 -3.015625 3.296875 -2.953125 C 3.296875 -2.90625 3.28125 -2.84375 3.265625 -2.8125 Z M 2.828125 -1.09375 "/>
</g>
<g id="glyph-0-3">
<path d="M 1.625 -0.140625 C 1.625 0.15625 1.625 0.890625 0.96875 1.515625 C 0.90625 1.578125 0.90625 1.578125 0.90625 1.625 C 0.90625 1.6875 0.96875 1.71875 1.03125 1.71875 C 1.125 1.71875 1.84375 1.03125 1.84375 -0.015625 C 1.84375 -0.578125 1.65625 -0.96875 1.265625 -0.96875 C 0.96875 -0.96875 0.78125 -0.734375 0.78125 -0.484375 C 0.78125 -0.234375 0.96875 0 1.265625 0 C 1.40625 0 1.53125 -0.046875 1.625 -0.140625 Z M 1.625 -0.140625 "/>
</g>
<g id="glyph-0-4">
<path d="M 4.125 -3.640625 C 4.15625 -3.765625 4.15625 -3.796875 4.15625 -3.828125 C 4.15625 -3.9375 4.0625 -3.953125 4.046875 -3.953125 C 3.953125 -3.953125 3.625 -3.640625 3.4375 -3.328125 C 3.296875 -3.65625 3.015625 -3.953125 2.5625 -3.953125 C 1.53125 -3.953125 0.375 -2.71875 0.375 -1.34375 C 0.375 -0.359375 1 0.09375 1.59375 0.09375 C 1.984375 0.09375 2.328125 -0.09375 2.65625 -0.40625 L 2.328125 0.96875 C 2.203125 1.421875 2.203125 1.453125 1.640625 1.453125 C 1.53125 1.453125 1.421875 1.453125 1.421875 1.625 C 1.421875 1.640625 1.421875 1.734375 1.546875 1.734375 C 1.75 1.734375 2.25 1.703125 2.453125 1.703125 C 2.75 1.703125 2.765625 1.703125 2.90625 1.71875 C 3.015625 1.71875 3.265625 1.734375 3.375 1.734375 C 3.4375 1.734375 3.546875 1.734375 3.546875 1.578125 C 3.546875 1.453125 3.453125 1.453125 3.3125 1.453125 C 2.890625 1.453125 2.890625 1.390625 2.890625 1.3125 C 2.890625 1.3125 2.890625 1.25 2.921875 1.125 Z M 2.828125 -1.09375 C 2.78125 -0.921875 2.78125 -0.90625 2.640625 -0.734375 C 2.328125 -0.359375 1.953125 -0.125 1.625 -0.125 C 1.1875 -0.125 1.03125 -0.578125 1.03125 -0.96875 C 1.03125 -1.40625 1.296875 -2.4375 1.515625 -2.859375 C 1.796875 -3.390625 2.203125 -3.734375 2.5625 -3.734375 C 3.15625 -3.734375 3.296875 -3.015625 3.296875 -2.953125 C 3.296875 -2.90625 3.28125 -2.84375 3.265625 -2.8125 Z M 2.828125 -1.09375 "/>
</g>
<g id="glyph-1-0">
<path d="M 6.328125 -2.953125 C 6.453125 -2.953125 6.625 -2.953125 6.625 -3.140625 C 6.625 -3.34375 6.421875 -3.34375 6.296875 -3.34375 L 0.84375 -3.34375 C 0.703125 -3.34375 0.515625 -3.34375 0.515625 -3.140625 C 0.515625 -2.953125 0.6875 -2.953125 0.796875 -2.953125 Z M 6.296875 -1.140625 C 6.421875 -1.140625 6.625 -1.140625 6.625 -1.328125 C 6.625 -1.515625 6.453125 -1.515625 6.328125 -1.515625 L 0.796875 -1.515625 C 0.6875 -1.515625 0.515625 -1.515625 0.515625 -1.328125 C 0.515625 -1.140625 0.703125 -1.140625 0.84375 -1.140625 Z M 6.296875 -1.140625 "/>
</g>
<g id="glyph-1-1">
<path d="M 4.234375 -2.859375 C 4.234375 -3.453125 4.203125 -4.234375 3.890625 -4.890625 C 3.5 -5.734375 2.8125 -5.953125 2.296875 -5.953125 C 1.765625 -5.953125 1.078125 -5.734375 0.6875 -4.875 C 0.40625 -4.265625 0.359375 -3.546875 0.359375 -2.859375 C 0.359375 -2.28125 0.375 -1.40625 0.765625 -0.703125 C 1.1875 0.046875 1.875 0.203125 2.28125 0.203125 C 2.875 0.203125 3.53125 -0.046875 3.90625 -0.875 C 4.171875 -1.46875 4.234375 -2.140625 4.234375 -2.859375 Z M 2.296875 -0.03125 C 2.03125 -0.03125 1.390625 -0.15625 1.21875 -1.15625 C 1.125 -1.6875 1.125 -2.453125 1.125 -2.96875 C 1.125 -3.578125 1.125 -4.28125 1.234375 -4.765625 C 1.40625 -5.5625 1.984375 -5.734375 2.28125 -5.734375 C 2.625 -5.734375 3.1875 -5.546875 3.359375 -4.71875 C 3.453125 -4.234375 3.453125 -3.53125 3.453125 -2.96875 C 3.453125 -2.40625 3.453125 -1.65625 3.375 -1.140625 C 3.1875 -0.109375 2.515625 -0.03125 2.296875 -0.03125 Z M 2.296875 -0.03125 "/>
</g>
<g id="glyph-1-2">
<path d="M 2.71875 -5.71875 C 2.71875 -5.9375 2.703125 -5.953125 2.484375 -5.953125 C 1.9375 -5.375 1.109375 -5.375 0.828125 -5.375 L 0.828125 -5.109375 C 1 -5.109375 1.546875 -5.109375 2.03125 -5.328125 L 2.03125 -0.71875 C 2.03125 -0.390625 2 -0.28125 1.171875 -0.28125 L 0.890625 -0.28125 L 0.890625 0 C 1.203125 -0.03125 2 -0.03125 2.375 -0.03125 C 2.734375 -0.03125 3.546875 -0.03125 3.859375 0 L 3.859375 -0.28125 L 3.578125 -0.28125 C 2.75 -0.28125 2.71875 -0.390625 2.71875 -0.71875 Z M 2.71875 -5.71875 "/>
</g>
<g id="glyph-1-3">
<path d="M 4.125 -1.578125 L 3.875 -1.578125 C 3.859375 -1.46875 3.796875 -0.9375 3.671875 -0.796875 C 3.625 -0.71875 3 -0.71875 2.828125 -0.71875 L 1.234375 -0.71875 L 2.125 -1.5625 C 3.578125 -2.828125 4.125 -3.296875 4.125 -4.203125 C 4.125 -5.234375 3.28125 -5.953125 2.1875 -5.953125 C 1.15625 -5.953125 0.453125 -5.140625 0.453125 -4.328125 C 0.453125 -3.875 0.84375 -3.828125 0.921875 -3.828125 C 1.125 -3.828125 1.390625 -3.984375 1.390625 -4.296875 C 1.390625 -4.5625 1.203125 -4.765625 0.921875 -4.765625 C 0.875 -4.765625 0.84375 -4.765625 0.8125 -4.75 C 1.03125 -5.390625 1.59375 -5.671875 2.078125 -5.671875 C 3 -5.671875 3.3125 -4.828125 3.3125 -4.203125 C 3.3125 -3.296875 2.625 -2.5625 2.1875 -2.09375 L 0.546875 -0.328125 C 0.453125 -0.21875 0.453125 -0.203125 0.453125 0 L 3.875 0 Z M 4.125 -1.578125 "/>
</g>
<g id="glyph-1-4">
<path d="M 2.71875 -3.140625 C 3.5625 -3.453125 3.953125 -4.109375 3.953125 -4.734375 C 3.953125 -5.421875 3.1875 -5.953125 2.265625 -5.953125 C 1.328125 -5.953125 0.640625 -5.421875 0.640625 -4.75 C 0.640625 -4.453125 0.828125 -4.28125 1.09375 -4.28125 C 1.34375 -4.28125 1.53125 -4.46875 1.53125 -4.734375 C 1.53125 -5.046875 1.328125 -5.171875 1.015625 -5.171875 C 1.25 -5.546875 1.796875 -5.734375 2.234375 -5.734375 C 2.96875 -5.734375 3.125 -5.140625 3.125 -4.71875 C 3.125 -4.453125 3.0625 -4.015625 2.84375 -3.6875 C 2.5625 -3.28125 2.25 -3.265625 2 -3.25 C 1.765625 -3.21875 1.75 -3.21875 1.6875 -3.21875 C 1.59375 -3.21875 1.53125 -3.203125 1.53125 -3.109375 C 1.53125 -3 1.59375 -3 1.75 -3 L 2.171875 -3 C 2.953125 -3 3.28125 -2.375 3.28125 -1.515625 C 3.28125 -0.375 2.6875 -0.046875 2.21875 -0.046875 C 2.0625 -0.046875 1.1875 -0.09375 0.78125 -0.765625 C 1.109375 -0.71875 1.359375 -0.9375 1.359375 -1.25 C 1.359375 -1.53125 1.140625 -1.71875 0.875 -1.71875 C 0.65625 -1.71875 0.390625 -1.59375 0.390625 -1.21875 C 0.390625 -0.421875 1.21875 0.203125 2.25 0.203125 C 3.375 0.203125 4.203125 -0.609375 4.203125 -1.515625 C 4.203125 -2.296875 3.578125 -2.953125 2.71875 -3.140625 Z M 2.71875 -3.140625 "/>
</g>
<g id="glyph-1-5">
<path d="M 1.640625 -3.953125 L 0.359375 -3.859375 L 0.359375 -3.578125 C 0.921875 -3.578125 1.015625 -3.515625 1.015625 -3.078125 L 1.015625 -0.6875 C 1.015625 -0.28125 0.90625 -0.28125 0.328125 -0.28125 L 0.328125 0 C 0.71875 -0.015625 0.90625 -0.03125 1.3125 -0.03125 C 1.453125 -0.03125 1.828125 -0.03125 2.265625 0 L 2.265625 -0.28125 C 1.6875 -0.28125 1.640625 -0.328125 1.640625 -0.671875 Z M 1.671875 -5.5 C 1.671875 -5.78125 1.453125 -5.984375 1.1875 -5.984375 C 0.90625 -5.984375 0.703125 -5.765625 0.703125 -5.5 C 0.703125 -5.25 0.90625 -5.015625 1.1875 -5.015625 C 1.453125 -5.015625 1.671875 -5.234375 1.671875 -5.5 Z M 1.671875 -5.5 "/>
</g>
<g id="glyph-1-6">
<path d="M 1.65625 -2.3125 C 1.65625 -3.265625 2.328125 -3.734375 2.890625 -3.734375 C 3.421875 -3.734375 3.546875 -3.28125 3.546875 -2.75 L 3.546875 -0.6875 C 3.546875 -0.28125 3.4375 -0.28125 2.84375 -0.28125 L 2.84375 0 C 3.265625 -0.015625 3.4375 -0.03125 3.875 -0.03125 C 4.296875 -0.03125 4.421875 -0.015625 4.890625 0 L 4.890625 -0.28125 C 4.4375 -0.28125 4.203125 -0.28125 4.203125 -0.546875 L 4.203125 -2.265625 C 4.203125 -3.015625 4.203125 -3.265625 3.953125 -3.578125 C 3.75 -3.828125 3.40625 -3.953125 2.953125 -3.953125 C 2.125 -3.953125 1.75 -3.328125 1.625 -3.078125 L 1.609375 -3.078125 L 1.609375 -3.953125 L 0.3125 -3.859375 L 0.3125 -3.578125 C 0.921875 -3.578125 1 -3.515625 1 -3.078125 L 1 -0.6875 C 1 -0.28125 0.90625 -0.28125 0.3125 -0.28125 L 0.3125 0 C 0.734375 -0.015625 0.90625 -0.03125 1.328125 -0.03125 C 1.765625 -0.03125 1.875 -0.015625 2.34375 0 L 2.34375 -0.28125 C 1.765625 -0.28125 1.65625 -0.28125 1.65625 -0.6875 Z M 1.65625 -2.3125 "/>
</g>
<g id="glyph-1-7">
<path d="M 3.078125 -3.765625 C 3.078125 -3.921875 3.078125 -4 2.96875 -4 C 2.921875 -4 2.90625 -4 2.78125 -3.890625 C 2.765625 -3.875 2.6875 -3.796875 2.640625 -3.75 C 2.359375 -3.953125 2.078125 -4 1.78125 -4 C 0.59375 -4 0.296875 -3.359375 0.296875 -2.890625 C 0.296875 -2.609375 0.421875 -2.375 0.640625 -2.1875 C 0.9375 -1.90625 1.28125 -1.84375 1.734375 -1.765625 C 2.1875 -1.671875 2.34375 -1.640625 2.53125 -1.5 C 2.625 -1.421875 2.84375 -1.25 2.84375 -0.90625 C 2.84375 -0.125 1.953125 -0.125 1.828125 -0.125 C 0.90625 -0.125 0.671875 -0.890625 0.578125 -1.375 C 0.546875 -1.453125 0.53125 -1.515625 0.421875 -1.515625 C 0.296875 -1.515625 0.296875 -1.4375 0.296875 -1.28125 L 0.296875 -0.140625 C 0.296875 0.015625 0.296875 0.09375 0.40625 0.09375 C 0.46875 0.09375 0.46875 0.09375 0.640625 -0.078125 C 0.671875 -0.140625 0.765625 -0.25 0.8125 -0.296875 C 1.1875 0.078125 1.59375 0.09375 1.828125 0.09375 C 2.921875 0.09375 3.3125 -0.546875 3.3125 -1.140625 C 3.3125 -1.546875 3.125 -1.78125 2.9375 -2 C 2.625 -2.28125 2.3125 -2.34375 1.640625 -2.46875 C 1.40625 -2.515625 0.765625 -2.640625 0.765625 -3.140625 C 0.765625 -3.4375 0.96875 -3.8125 1.78125 -3.8125 C 2.75 -3.8125 2.8125 -3.0625 2.828125 -2.84375 C 2.828125 -2.734375 2.828125 -2.6875 2.953125 -2.6875 C 3.078125 -2.6875 3.078125 -2.75 3.078125 -2.90625 Z M 3.078125 -3.765625 "/>
</g>
<g id="glyph-1-8">
<path d="M 3.578125 -2.046875 C 3.765625 -2.046875 3.8125 -2.046875 3.8125 -2.234375 C 3.8125 -3.15625 3.3125 -4 2.171875 -4 C 1.09375 -4 0.265625 -3.078125 0.265625 -1.96875 C 0.265625 -0.796875 1.203125 0.09375 2.28125 0.09375 C 3.375 0.09375 3.8125 -0.859375 3.8125 -1.0625 C 3.8125 -1.125 3.765625 -1.1875 3.6875 -1.1875 C 3.609375 -1.1875 3.578125 -1.125 3.5625 -1.078125 C 3.265625 -0.171875 2.46875 -0.15625 2.328125 -0.15625 C 1.90625 -0.15625 1.53125 -0.390625 1.328125 -0.703125 C 1.03125 -1.140625 1.03125 -1.671875 1.03125 -2.046875 Z M 1.03125 -2.265625 C 1.125 -3.640625 1.921875 -3.78125 2.171875 -3.78125 C 2.65625 -3.78125 3.203125 -3.40625 3.203125 -2.265625 Z M 1.03125 -2.265625 "/>
</g>
<g id="glyph-1-9">
<path d="M 1.59375 -2.046875 C 1.59375 -2.40625 1.6875 -3.734375 2.703125 -3.734375 L 2.703125 -3.71875 C 2.6875 -3.703125 2.546875 -3.609375 2.546875 -3.390625 C 2.546875 -3.140625 2.734375 -3 2.9375 -3 C 3.125 -3 3.328125 -3.125 3.328125 -3.390625 C 3.328125 -3.6875 3.0625 -3.953125 2.65625 -3.953125 C 2.125 -3.953125 1.75 -3.578125 1.546875 -3.015625 L 1.53125 -3.015625 L 1.53125 -3.953125 L 0.265625 -3.859375 L 0.265625 -3.578125 C 0.875 -3.578125 0.953125 -3.515625 0.953125 -3.078125 L 0.953125 -0.6875 C 0.953125 -0.28125 0.859375 -0.28125 0.265625 -0.28125 L 0.265625 0 C 0.734375 -0.015625 0.859375 -0.03125 1.3125 -0.03125 C 1.671875 -0.03125 1.890625 -0.015625 2.453125 0 L 2.453125 -0.28125 L 2.265625 -0.28125 C 1.625 -0.28125 1.59375 -0.375 1.59375 -0.703125 Z M 1.59375 -2.046875 "/>
</g>
<g id="glyph-1-10">
<path d="M 2.90625 -3.578125 L 2.90625 -3.859375 L 1.609375 -3.859375 L 1.609375 -5.5 L 1.359375 -5.5 C 1.34375 -4.75 1.03125 -3.828125 0.171875 -3.796875 L 0.171875 -3.578125 L 0.953125 -3.578125 L 0.953125 -1.109375 C 0.953125 -0.109375 1.671875 0.09375 2.140625 0.09375 C 2.75 0.09375 3.0625 -0.46875 3.0625 -1.109375 L 3.0625 -1.625 L 2.8125 -1.625 L 2.8125 -1.140625 C 2.8125 -0.46875 2.53125 -0.15625 2.203125 -0.15625 C 1.609375 -0.15625 1.609375 -0.9375 1.609375 -1.09375 L 1.609375 -3.578125 Z M 2.90625 -3.578125 "/>
</g>
<g id="glyph-1-11">
<path d="M 3.046875 2.125 C 3.046875 2.078125 3.015625 2.0625 2.96875 2 C 1.8125 0.9375 1.46875 -0.671875 1.46875 -2.234375 C 1.46875 -3.625 1.734375 -5.296875 3 -6.5 C 3.03125 -6.53125 3.046875 -6.5625 3.046875 -6.609375 C 3.046875 -6.671875 3 -6.703125 2.9375 -6.703125 C 2.828125 -6.703125 2.03125 -6.0625 1.546875 -5.078125 C 1.125 -4.234375 0.90625 -3.3125 0.90625 -2.25 C 0.90625 -1.59375 0.984375 -0.578125 1.46875 0.46875 C 2 1.578125 2.828125 2.21875 2.9375 2.21875 C 3 2.21875 3.046875 2.1875 3.046875 2.125 Z M 3.046875 2.125 "/>
</g>
<g id="glyph-1-12">
<path d="M 2.65625 -2.25 C 2.65625 -2.96875 2.5625 -3.953125 2.09375 -4.953125 C 1.5625 -6.046875 0.734375 -6.703125 0.625 -6.703125 C 0.53125 -6.703125 0.515625 -6.625 0.515625 -6.609375 C 0.515625 -6.5625 0.53125 -6.53125 0.59375 -6.46875 C 1.125 -6 2.09375 -4.796875 2.09375 -2.25 C 2.09375 -0.96875 1.875 0.8125 0.578125 2.015625 C 0.546875 2.046875 0.515625 2.078125 0.515625 2.125 C 0.515625 2.15625 0.53125 2.21875 0.625 2.21875 C 0.734375 2.21875 1.53125 1.578125 2.015625 0.609375 C 2.453125 -0.25 2.65625 -1.171875 2.65625 -2.25 Z M 2.65625 -2.25 "/>
</g>
<g id="glyph-2-0">
<path d="M 4.25 -2.71875 C 4.25 -4.390625 3.34375 -5.5625 2.34375 -5.5625 C 1.328125 -5.5625 0.421875 -4.359375 0.421875 -2.734375 C 0.421875 -1.078125 1.34375 0.09375 2.34375 0.09375 C 3.359375 0.09375 4.25 -1.09375 4.25 -2.71875 Z M 2.34375 -0.484375 C 1.640625 -0.484375 1.09375 -1.53125 1.09375 -2.828125 C 1.09375 -4.125 1.703125 -4.984375 2.34375 -4.984375 C 2.984375 -4.984375 3.59375 -4.109375 3.59375 -2.828125 C 3.59375 -1.53125 3.03125 -0.484375 2.34375 -0.484375 Z M 2.34375 -0.484375 "/>
</g>
<g id="glyph-2-1">
<path d="M 2.8125 -5.1875 C 2.8125 -5.3125 2.8125 -5.5625 2.515625 -5.5625 C 2.375 -5.5625 2.296875 -5.484375 2.25 -5.359375 C 1.96875 -4.734375 1.609375 -4.5 1.25 -4.46875 C 1.125 -4.453125 0.921875 -4.4375 0.921875 -4.171875 C 0.921875 -4 1.015625 -3.890625 1.234375 -3.890625 C 1.59375 -3.890625 1.9375 -4.078125 2.140625 -4.25 L 2.140625 -0.578125 L 1.34375 -0.578125 C 1.203125 -0.578125 0.96875 -0.578125 0.96875 -0.28125 C 0.96875 0 1.21875 0 1.34375 0 L 3.609375 0 C 3.734375 0 3.984375 0 3.984375 -0.28125 C 3.984375 -0.578125 3.75 -0.578125 3.609375 -0.578125 L 2.8125 -0.578125 Z M 2.8125 -5.1875 "/>
</g>
<g id="glyph-3-0">
<path d="M 1.671875 -3.46875 L 1.109375 -3.46875 L 1.109375 -4.421875 L 0.5625 -4.421875 L 0.5625 -3.46875 L 0.09375 -3.46875 L 0.09375 -3.015625 L 0.5625 -3.015625 L 0.5625 -0.390625 C 0.5625 -0.046875 0.796875 0.15625 1.234375 0.15625 C 1.359375 0.15625 1.5 0.140625 1.671875 0.109375 L 1.671875 -0.359375 C 1.609375 -0.34375 1.515625 -0.328125 1.421875 -0.328125 C 1.171875 -0.328125 1.109375 -0.390625 1.109375 -0.640625 L 1.109375 -3.015625 L 1.671875 -3.015625 Z M 1.671875 -3.46875 "/>
</g>
<g id="glyph-3-1">
<path d="M 3.53125 -0.328125 C 3.484375 -0.3125 3.453125 -0.3125 3.421875 -0.3125 C 3.21875 -0.3125 3.125 -0.40625 3.125 -0.578125 L 3.125 -2.625 C 3.125 -3.234375 2.671875 -3.5625 1.8125 -3.5625 C 1.3125 -3.5625 0.90625 -3.421875 0.671875 -3.15625 C 0.515625 -2.984375 0.4375 -2.78125 0.421875 -2.4375 L 0.984375 -2.4375 C 1.03125 -2.859375 1.28125 -3.046875 1.796875 -3.046875 C 2.296875 -3.046875 2.578125 -2.875 2.578125 -2.53125 L 2.578125 -2.390625 C 2.578125 -2.15625 2.4375 -2.0625 2 -2.015625 C 1.21875 -1.90625 1.09375 -1.890625 0.890625 -1.796875 C 0.484375 -1.625 0.28125 -1.328125 0.28125 -0.875 C 0.28125 -0.25 0.71875 0.15625 1.421875 0.15625 C 1.84375 0.15625 2.203125 0 2.59375 -0.359375 C 2.625 0 2.796875 0.15625 3.15625 0.15625 C 3.265625 0.15625 3.359375 0.140625 3.53125 0.09375 Z M 2.578125 -1.09375 C 2.578125 -0.90625 2.515625 -0.796875 2.359375 -0.640625 C 2.125 -0.4375 1.859375 -0.328125 1.53125 -0.328125 C 1.109375 -0.328125 0.859375 -0.53125 0.859375 -0.890625 C 0.859375 -1.25 1.09375 -1.4375 1.6875 -1.515625 C 2.265625 -1.59375 2.390625 -1.625 2.578125 -1.71875 Z M 2.578125 -1.09375 "/>
</g>
<g id="glyph-3-2">
<path d="M 0.453125 -3.46875 L 0.453125 0 L 1.015625 0 L 1.015625 -1.796875 C 1.015625 -2.296875 1.140625 -2.625 1.40625 -2.8125 C 1.578125 -2.9375 1.734375 -2.96875 2.125 -2.984375 L 2.125 -3.546875 C 2.03125 -3.5625 1.984375 -3.5625 1.90625 -3.5625 C 1.546875 -3.5625 1.28125 -3.34375 0.96875 -2.828125 L 0.96875 -3.46875 Z M 0.453125 -3.46875 "/>
</g>
<g id="glyph-3-3">
<path d="M 2.71875 -3.46875 L 2.71875 -2.96875 C 2.453125 -3.375 2.109375 -3.5625 1.671875 -3.5625 C 0.78125 -3.5625 0.1875 -2.796875 0.1875 -1.671875 C 0.1875 -1.109375 0.34375 -0.640625 0.625 -0.3125 C 0.890625 -0.015625 1.25 0.15625 1.625 0.15625 C 2.0625 0.15625 2.359375 -0.03125 2.671875 -0.46875 L 2.671875 -0.296875 C 2.671875 0.171875 2.609375 0.46875 2.46875 0.65625 C 2.328125 0.859375 2.046875 0.984375 1.703125 0.984375 C 1.453125 0.984375 1.234375 0.90625 1.078125 0.796875 C 0.953125 0.6875 0.90625 0.59375 0.859375 0.390625 L 0.296875 0.390625 C 0.359375 1.046875 0.875 1.4375 1.6875 1.4375 C 2.203125 1.4375 2.640625 1.28125 2.875 1 C 3.140625 0.6875 3.234375 0.25 3.234375 -0.5625 L 3.234375 -3.46875 Z M 1.71875 -3.046875 C 2.3125 -3.046875 2.671875 -2.546875 2.671875 -1.6875 C 2.671875 -0.859375 2.3125 -0.359375 1.734375 -0.359375 C 1.125 -0.359375 0.765625 -0.859375 0.765625 -1.703125 C 0.765625 -2.53125 1.140625 -3.046875 1.71875 -3.046875 Z M 1.71875 -3.046875 "/>
</g>
<g id="glyph-3-4">
<path d="M 3.390625 -1.546875 C 3.390625 -2.078125 3.34375 -2.390625 3.25 -2.65625 C 3.03125 -3.21875 2.5 -3.5625 1.84375 -3.5625 C 0.890625 -3.5625 0.265625 -2.828125 0.265625 -1.6875 C 0.265625 -0.546875 0.859375 0.15625 1.84375 0.15625 C 2.625 0.15625 3.171875 -0.296875 3.3125 -1.046875 L 2.765625 -1.046875 C 2.609375 -0.59375 2.296875 -0.359375 1.859375 -0.359375 C 1.5 -0.359375 1.203125 -0.515625 1.03125 -0.8125 C 0.890625 -1 0.84375 -1.203125 0.84375 -1.546875 Z M 0.859375 -2 C 0.90625 -2.640625 1.28125 -3.046875 1.84375 -3.046875 C 2.390625 -3.046875 2.796875 -2.609375 2.796875 -2.03125 C 2.796875 -2.015625 2.796875 -2.015625 2.796875 -2 Z M 0.859375 -2 "/>
</g>
<g id="glyph-3-5">
<path d="M 0.359375 -4.8125 L 0.359375 0 L 0.859375 0 L 0.859375 -0.4375 C 1.109375 -0.046875 1.46875 0.15625 1.953125 0.15625 C 2.859375 0.15625 3.453125 -0.59375 3.453125 -1.75 C 3.453125 -2.875 2.890625 -3.5625 1.96875 -3.5625 C 1.5 -3.5625 1.15625 -3.390625 0.90625 -3 L 0.90625 -4.8125 Z M 1.875 -3.046875 C 2.484375 -3.046875 2.875 -2.515625 2.875 -1.6875 C 2.875 -0.90625 2.46875 -0.359375 1.875 -0.359375 C 1.28125 -0.359375 0.90625 -0.890625 0.90625 -1.703125 C 0.90625 -2.515625 1.28125 -3.046875 1.875 -3.046875 Z M 1.875 -3.046875 "/>
</g>
<g id="glyph-3-6">
<path d="M 0.984375 -3.46875 L 0.4375 -3.46875 L 0.4375 0 L 0.984375 0 Z M 0.984375 -4.8125 L 0.4375 -4.8125 L 0.4375 -4.125 L 0.984375 -4.125 Z M 0.984375 -4.8125 "/>
</g>
<g id="glyph-4-0">
<path d="M 3.546875 -2.859375 C 3.546875 -2.890625 3.546875 -2.9375 3.546875 -2.96875 C 3.546875 -3.015625 3.53125 -3.0625 3.46875 -3.0625 C 3.390625 -3.0625 3.09375 -2.828125 2.96875 -2.609375 C 2.890625 -2.75 2.65625 -3.0625 2.21875 -3.0625 C 1.328125 -3.0625 0.421875 -2.09375 0.421875 -1.078125 C 0.421875 -0.40625 0.875 0.0625 1.46875 0.0625 C 1.875 0.0625 2.203125 -0.1875 2.34375 -0.3125 C 2.34375 -0.296875 2.125 0.578125 2.09375 0.703125 C 2 1.078125 2 1.09375 1.5625 1.09375 C 1.484375 1.09375 1.390625 1.09375 1.390625 1.25 C 1.390625 1.296875 1.421875 1.34375 1.484375 1.34375 C 1.71875 1.34375 1.96875 1.328125 2.21875 1.328125 C 2.453125 1.328125 2.734375 1.34375 2.953125 1.34375 C 3.015625 1.34375 3.09375 1.328125 3.09375 1.203125 C 3.09375 1.09375 3 1.09375 2.90625 1.09375 C 2.765625 1.09375 2.578125 1.09375 2.578125 1.015625 C 2.578125 1 2.578125 0.984375 2.609375 0.859375 Z M 2.484375 -0.875 C 2.453125 -0.765625 2.453125 -0.75 2.359375 -0.625 C 2.09375 -0.3125 1.765625 -0.125 1.5 -0.125 C 1.234375 -0.125 0.984375 -0.3125 0.984375 -0.796875 C 0.984375 -1.171875 1.1875 -1.9375 1.34375 -2.21875 C 1.671875 -2.765625 2.015625 -2.875 2.21875 -2.875 C 2.703125 -2.875 2.84375 -2.34375 2.84375 -2.265625 C 2.84375 -2.234375 2.828125 -2.1875 2.8125 -2.15625 Z M 2.484375 -0.875 "/>
</g>
<g id="glyph-4-1">
<path d="M 5.796875 -3.984375 C 5.875 -4.25 5.984375 -4.484375 6.53125 -4.5 C 6.578125 -4.5 6.671875 -4.5 6.671875 -4.65625 C 6.671875 -4.6875 6.640625 -4.75 6.578125 -4.75 C 6.34375 -4.75 6.078125 -4.71875 5.84375 -4.71875 C 5.6875 -4.71875 5.28125 -4.75 5.109375 -4.75 C 5.078125 -4.75 4.96875 -4.75 4.96875 -4.59375 C 4.96875 -4.5 5.0625 -4.5 5.125 -4.5 C 5.453125 -4.484375 5.5625 -4.390625 5.5625 -4.21875 C 5.5625 -4.15625 5.5625 -4.125 5.546875 -4.046875 L 4.78125 -1.015625 L 3.015625 -4.625 C 2.96875 -4.75 2.953125 -4.75 2.78125 -4.75 L 1.828125 -4.75 C 1.703125 -4.75 1.609375 -4.75 1.609375 -4.59375 C 1.609375 -4.5 1.6875 -4.5 1.828125 -4.5 C 1.984375 -4.5 2.140625 -4.484375 2.28125 -4.46875 L 1.34375 -0.75 C 1.28125 -0.484375 1.171875 -0.265625 0.625 -0.25 C 0.578125 -0.25 0.484375 -0.25 0.484375 -0.109375 C 0.484375 -0.03125 0.53125 0 0.578125 0 C 0.8125 0 1.078125 -0.03125 1.3125 -0.03125 C 1.46875 -0.03125 1.875 0 2.046875 0 C 2.109375 0 2.1875 -0.03125 2.1875 -0.140625 C 2.1875 -0.25 2.09375 -0.25 2.015625 -0.25 C 1.578125 -0.265625 1.578125 -0.4375 1.578125 -0.546875 C 1.578125 -0.5625 1.578125 -0.609375 1.609375 -0.71875 L 2.5 -4.28125 L 4.53125 -0.125 C 4.59375 0 4.609375 0 4.6875 0 C 4.796875 0 4.796875 -0.015625 4.828125 -0.140625 Z M 5.796875 -3.984375 "/>
</g>
<g id="glyph-5-0">
<path d="M 5.34375 -2.34375 C 5.4375 -2.34375 5.609375 -2.34375 5.609375 -2.515625 C 5.609375 -2.671875 5.4375 -2.671875 5.34375 -2.671875 L 0.75 -2.671875 C 0.65625 -2.671875 0.484375 -2.671875 0.484375 -2.515625 C 0.484375 -2.34375 0.640625 -2.34375 0.75 -2.34375 Z M 5.34375 -0.8125 C 5.4375 -0.8125 5.609375 -0.8125 5.609375 -0.96875 C 5.609375 -1.140625 5.4375 -1.140625 5.34375 -1.140625 L 0.75 -1.140625 C 0.640625 -1.140625 0.484375 -1.140625 0.484375 -0.96875 C 0.484375 -0.8125 0.65625 -0.8125 0.75 -0.8125 Z M 5.34375 -0.8125 "/>
</g>
<g id="glyph-5-1">
<path d="M 3.515625 -1.265625 L 3.28125 -1.265625 C 3.25 -1.109375 3.1875 -0.703125 3.09375 -0.625 C 3.03125 -0.59375 2.5 -0.59375 2.40625 -0.59375 L 1.125 -0.59375 C 1.859375 -1.234375 2.09375 -1.4375 2.515625 -1.765625 C 3.03125 -2.171875 3.515625 -2.59375 3.515625 -3.265625 C 3.515625 -4.109375 2.78125 -4.609375 1.890625 -4.609375 C 1.015625 -4.609375 0.4375 -4.015625 0.4375 -3.375 C 0.4375 -3.015625 0.734375 -2.984375 0.8125 -2.984375 C 0.96875 -2.984375 1.171875 -3.09375 1.171875 -3.34375 C 1.171875 -3.484375 1.125 -3.71875 0.765625 -3.71875 C 0.984375 -4.21875 1.453125 -4.359375 1.78125 -4.359375 C 2.46875 -4.359375 2.84375 -3.828125 2.84375 -3.265625 C 2.84375 -2.65625 2.40625 -2.171875 2.1875 -1.921875 L 0.5 -0.265625 C 0.4375 -0.203125 0.4375 -0.1875 0.4375 0 L 3.296875 0 Z M 3.515625 -1.265625 "/>
</g>
<g id="glyph-5-2">
<path d="M 2.328125 -4.421875 C 2.328125 -4.609375 2.3125 -4.609375 2.125 -4.609375 C 1.671875 -4.171875 1.046875 -4.171875 0.765625 -4.171875 L 0.765625 -3.921875 C 0.921875 -3.921875 1.390625 -3.921875 1.765625 -4.109375 L 1.765625 -0.5625 C 1.765625 -0.34375 1.765625 -0.25 1.078125 -0.25 L 0.8125 -0.25 L 0.8125 0 C 0.9375 0 1.78125 -0.03125 2.046875 -0.03125 C 2.265625 -0.03125 3.140625 0 3.28125 0 L 3.28125 -0.25 L 3.03125 -0.25 C 2.328125 -0.25 2.328125 -0.34375 2.328125 -0.5625 Z M 2.328125 -4.421875 "/>
</g>
<g id="glyph-6-0">
<path d="M 3.28125 -1.90625 C 3.28125 -2.328125 3.28125 -3.953125 1.8125 -3.953125 C 0.359375 -3.953125 0.359375 -2.328125 0.359375 -1.90625 C 0.359375 -1.46875 0.359375 0.125 1.8125 0.125 C 3.28125 0.125 3.28125 -1.46875 3.28125 -1.90625 Z M 1.8125 -0.0625 C 1.5625 -0.0625 1.15625 -0.1875 1.015625 -0.671875 C 0.921875 -1.03125 0.921875 -1.609375 0.921875 -1.96875 C 0.921875 -2.375 0.921875 -2.828125 1 -3.15625 C 1.15625 -3.6875 1.609375 -3.765625 1.8125 -3.765625 C 2.09375 -3.765625 2.484375 -3.640625 2.609375 -3.1875 C 2.703125 -2.875 2.703125 -2.4375 2.703125 -1.96875 C 2.703125 -1.59375 2.703125 -1 2.609375 -0.65625 C 2.4375 -0.140625 2.015625 -0.0625 1.8125 -0.0625 Z M 1.8125 -0.0625 "/>
</g>
<g id="glyph-6-1">
<path d="M 3.359375 -0.96875 L 3.359375 -1.203125 L 2.65625 -1.203125 L 2.65625 -3.84375 C 2.65625 -3.984375 2.65625 -4.015625 2.515625 -4.015625 C 2.40625 -4.015625 2.390625 -4 2.34375 -3.921875 L 0.28125 -1.203125 L 0.28125 -0.96875 L 2.125 -0.96875 L 2.125 -0.5 C 2.125 -0.296875 2.125 -0.234375 1.625 -0.234375 L 1.453125 -0.234375 L 1.453125 0 C 1.578125 0 2.125 -0.03125 2.390625 -0.03125 C 2.65625 -0.03125 3.21875 0 3.328125 0 L 3.328125 -0.234375 L 3.15625 -0.234375 C 2.65625 -0.234375 2.65625 -0.296875 2.65625 -0.5 L 2.65625 -0.96875 Z M 2.171875 -3.375 L 2.171875 -1.203125 L 0.53125 -1.203125 Z M 2.171875 -3.375 "/>
</g>
<g id="glyph-6-2">
<path d="M 2.140625 -3.78125 C 2.140625 -3.953125 2.109375 -3.953125 1.9375 -3.953125 C 1.546875 -3.578125 0.9375 -3.578125 0.71875 -3.578125 L 0.71875 -3.34375 C 0.875 -3.34375 1.265625 -3.34375 1.625 -3.515625 L 1.625 -0.5 C 1.625 -0.3125 1.625 -0.234375 1.015625 -0.234375 L 0.75 -0.234375 L 0.75 0 C 1.078125 -0.03125 1.546875 -0.03125 1.875 -0.03125 C 2.21875 -0.03125 2.671875 -0.03125 3 0 L 3 -0.234375 L 2.75 -0.234375 C 2.140625 -0.234375 2.140625 -0.3125 2.140625 -0.5 Z M 2.140625 -3.78125 "/>
</g>
<g id="glyph-6-3">
<path d="M 1.015625 -3.296875 C 1.203125 -3.25 1.421875 -3.234375 1.625 -3.234375 C 1.75 -3.234375 2.078125 -3.234375 2.453125 -3.4375 C 2.5625 -3.5 2.921875 -3.734375 2.921875 -3.859375 C 2.921875 -3.9375 2.875 -3.953125 2.84375 -3.953125 C 2.828125 -3.953125 2.828125 -3.953125 2.75 -3.9375 C 2.546875 -3.859375 2.234375 -3.765625 1.84375 -3.765625 C 1.5625 -3.765625 1.234375 -3.828125 0.96875 -3.921875 C 0.90625 -3.953125 0.890625 -3.953125 0.859375 -3.953125 C 0.78125 -3.953125 0.78125 -3.890625 0.78125 -3.796875 L 0.78125 -2.015625 C 0.78125 -1.90625 0.78125 -1.84375 0.890625 -1.84375 C 0.9375 -1.84375 0.953125 -1.859375 1 -1.90625 C 1.15625 -2.09375 1.40625 -2.296875 1.875 -2.296875 C 2.609375 -2.296875 2.609375 -1.40625 2.609375 -1.21875 C 2.609375 -0.984375 2.59375 -0.65625 2.390625 -0.40625 C 2.203125 -0.1875 1.9375 -0.09375 1.671875 -0.09375 C 1.265625 -0.09375 0.859375 -0.3125 0.71875 -0.65625 C 1 -0.671875 1.046875 -0.90625 1.046875 -0.96875 C 1.046875 -1.125 0.921875 -1.28125 0.734375 -1.28125 C 0.671875 -1.28125 0.421875 -1.25 0.421875 -0.953125 C 0.421875 -0.40625 0.953125 0.125 1.703125 0.125 C 2.515625 0.125 3.203125 -0.453125 3.203125 -1.203125 C 3.203125 -1.875 2.65625 -2.5 1.890625 -2.5 C 1.5 -2.5 1.203125 -2.375 1.015625 -2.203125 Z M 1.015625 -3.296875 "/>
</g>
<g id="glyph-6-4">
<path d="M 3.203125 -1.109375 L 2.984375 -1.109375 C 2.96875 -1.03125 2.90625 -0.640625 2.828125 -0.578125 C 2.78125 -0.53125 2.296875 -0.53125 2.21875 -0.53125 L 1.09375 -0.53125 L 1.859375 -1.15625 C 2.0625 -1.3125 2.59375 -1.703125 2.78125 -1.875 C 2.953125 -2.046875 3.203125 -2.359375 3.203125 -2.78125 C 3.203125 -3.53125 2.53125 -3.953125 1.734375 -3.953125 C 0.96875 -3.953125 0.421875 -3.453125 0.421875 -2.890625 C 0.421875 -2.59375 0.6875 -2.546875 0.75 -2.546875 C 0.90625 -2.546875 1.078125 -2.65625 1.078125 -2.875 C 1.078125 -3 1 -3.203125 0.734375 -3.203125 C 0.875 -3.5 1.234375 -3.734375 1.640625 -3.734375 C 2.265625 -3.734375 2.59375 -3.265625 2.59375 -2.78125 C 2.59375 -2.359375 2.328125 -1.921875 1.90625 -1.546875 L 0.5 -0.25 C 0.4375 -0.1875 0.421875 -0.1875 0.421875 0 L 3.015625 0 Z M 3.203125 -1.109375 "/>
</g>
<g id="glyph-6-5">
<path d="M 0.96875 -1.96875 C 0.96875 -2.265625 0.984375 -2.765625 1.203125 -3.125 C 1.453125 -3.578125 1.84375 -3.765625 2.203125 -3.765625 C 2.34375 -3.765625 2.625 -3.734375 2.765625 -3.578125 C 2.546875 -3.53125 2.5 -3.375 2.5 -3.28125 C 2.5 -3.125 2.609375 -3 2.796875 -3 C 2.96875 -3 3.078125 -3.109375 3.078125 -3.296875 C 3.078125 -3.65625 2.8125 -3.953125 2.203125 -3.953125 C 1.28125 -3.953125 0.375 -3.15625 0.375 -1.890625 C 0.375 -0.4375 1.046875 0.125 1.828125 0.125 C 2.0625 0.125 2.46875 0.09375 2.828125 -0.265625 C 3.03125 -0.453125 3.25 -0.6875 3.25 -1.21875 C 3.25 -1.421875 3.234375 -1.796875 2.875 -2.140625 C 2.65625 -2.328125 2.40625 -2.53125 1.890625 -2.53125 C 1.46875 -2.53125 1.171875 -2.328125 0.96875 -1.96875 Z M 1.828125 -0.09375 C 0.984375 -0.09375 0.984375 -1.109375 0.984375 -1.34375 C 0.984375 -1.859375 1.328125 -2.34375 1.859375 -2.34375 C 2.171875 -2.34375 2.34375 -2.21875 2.5 -2.03125 C 2.65625 -1.796875 2.65625 -1.53125 2.65625 -1.21875 C 2.65625 -0.796875 2.65625 -0.59375 2.453125 -0.359375 C 2.296875 -0.1875 2.109375 -0.09375 1.828125 -0.09375 Z M 1.828125 -0.09375 "/>
</g>
<g id="glyph-6-6">
<path d="M 1.75 -1.96875 C 2.25 -1.96875 2.59375 -1.640625 2.59375 -1.03125 C 2.59375 -0.375 2.203125 -0.09375 1.765625 -0.09375 C 1.609375 -0.09375 1 -0.125 0.71875 -0.46875 C 0.953125 -0.5 1.046875 -0.65625 1.046875 -0.8125 C 1.046875 -1.015625 0.90625 -1.15625 0.71875 -1.15625 C 0.546875 -1.15625 0.375 -1.046875 0.375 -0.796875 C 0.375 -0.203125 1.03125 0.125 1.78125 0.125 C 2.671875 0.125 3.25 -0.4375 3.25 -1.03125 C 3.25 -1.46875 2.921875 -1.921875 2.21875 -2.09375 C 2.6875 -2.25 3.0625 -2.640625 3.0625 -3.125 C 3.0625 -3.609375 2.5 -3.953125 1.796875 -3.953125 C 1.09375 -3.953125 0.5625 -3.640625 0.5625 -3.15625 C 0.5625 -2.890625 0.765625 -2.828125 0.875 -2.828125 C 1.03125 -2.828125 1.203125 -2.921875 1.203125 -3.140625 C 1.203125 -3.328125 1.0625 -3.421875 0.90625 -3.453125 C 1.1875 -3.765625 1.71875 -3.765625 1.78125 -3.765625 C 2.078125 -3.765625 2.46875 -3.625 2.46875 -3.125 C 2.46875 -2.796875 2.28125 -2.21875 1.6875 -2.1875 C 1.578125 -2.1875 1.421875 -2.171875 1.359375 -2.171875 C 1.296875 -2.171875 1.234375 -2.15625 1.234375 -2.078125 C 1.234375 -1.96875 1.296875 -1.96875 1.40625 -1.96875 Z M 1.75 -1.96875 "/>
</g>
<g id="glyph-6-7">
<path d="M 3.40625 -3.59375 C 3.453125 -3.65625 3.453125 -3.671875 3.453125 -3.828125 L 1.921875 -3.828125 C 1.671875 -3.828125 1.53125 -3.84375 1.296875 -3.859375 C 1 -3.875 0.9375 -3.875 0.90625 -4.03125 L 0.6875 -4.03125 L 0.46875 -2.71875 L 0.6875 -2.71875 C 0.703125 -2.84375 0.765625 -3.203125 0.859375 -3.265625 C 0.90625 -3.296875 1.421875 -3.296875 1.5 -3.296875 L 2.84375 -3.296875 C 2.78125 -3.21875 2.46875 -2.828125 2.328125 -2.65625 C 1.75 -1.96875 1.34375 -1.125 1.34375 -0.21875 C 1.34375 -0.15625 1.34375 0.125 1.625 0.125 C 1.921875 0.125 1.921875 -0.15625 1.921875 -0.21875 L 1.921875 -0.390625 C 1.921875 -1.53125 2.15625 -2.125 2.453125 -2.46875 Z M 3.40625 -3.59375 "/>
</g>
<g id="glyph-7-0">
<path d="M 4.875 -3.265625 C 4.9375 -3.34375 4.96875 -3.375 4.96875 -3.421875 C 4.96875 -3.546875 4.875 -3.609375 4.796875 -3.609375 C 4.734375 -3.609375 4.703125 -3.578125 4.625 -3.5 L 3.09375 -1.984375 L 1.578125 -3.5 C 1.5 -3.578125 1.46875 -3.609375 1.40625 -3.609375 C 1.3125 -3.609375 1.234375 -3.53125 1.234375 -3.421875 C 1.234375 -3.359375 1.265625 -3.34375 1.34375 -3.265625 L 2.859375 -1.75 L 1.34375 -0.234375 C 1.25 -0.125 1.234375 -0.09375 1.234375 -0.0625 C 1.234375 0.046875 1.3125 0.125 1.40625 0.125 C 1.46875 0.125 1.5 0.09375 1.578125 0.015625 L 3.09375 -1.5 L 4.6875 0.078125 C 4.71875 0.109375 4.75 0.125 4.796875 0.125 C 4.875 0.125 4.96875 0.0625 4.96875 -0.0625 C 4.96875 -0.109375 4.953125 -0.125 4.9375 -0.140625 C 4.921875 -0.171875 3.5625 -1.515625 3.34375 -1.734375 Z M 4.875 -3.265625 "/>
</g>
<g id="glyph-7-1">
<path d="M 5.171875 -1.578125 C 5.28125 -1.578125 5.453125 -1.578125 5.453125 -1.734375 C 5.453125 -1.90625 5.296875 -1.90625 5.171875 -1.90625 L 1.03125 -1.90625 C 0.921875 -1.90625 0.75 -1.90625 0.75 -1.75 C 0.75 -1.578125 0.90625 -1.578125 1.03125 -1.578125 Z M 5.171875 -1.578125 "/>
</g>
<g id="glyph-8-0">
<path d="M 1.46875 -6.375 C 1.46875 -6.53125 1.46875 -6.703125 1.28125 -6.703125 C 1.078125 -6.703125 1.078125 -6.53125 1.078125 -6.375 L 1.078125 1.90625 C 1.078125 2.0625 1.078125 2.234375 1.265625 2.234375 C 1.46875 2.234375 1.46875 2.0625 1.46875 1.90625 Z M 1.46875 -6.375 "/>
</g>
<g id="glyph-8-1">
<path d="M 5.671875 -4.78125 C 5.796875 -4.84375 5.859375 -4.890625 5.859375 -5 C 5.859375 -5.125 5.75 -5.1875 5.671875 -5.1875 C 5.625 -5.1875 5.609375 -5.171875 5.5 -5.125 L 0.671875 -2.4375 C 0.546875 -2.375 0.515625 -2.34375 0.515625 -2.234375 C 0.515625 -2.125 0.59375 -2.078125 0.65625 -2.03125 L 5.5 0.640625 C 5.609375 0.703125 5.640625 0.703125 5.671875 0.703125 C 5.796875 0.703125 5.859375 0.609375 5.859375 0.515625 C 5.859375 0.40625 5.8125 0.390625 5.6875 0.3125 L 1.09375 -2.234375 Z M 8.484375 -4.78125 C 8.59375 -4.84375 8.671875 -4.890625 8.671875 -5 C 8.671875 -5.125 8.5625 -5.1875 8.484375 -5.1875 C 8.421875 -5.1875 8.40625 -5.171875 8.3125 -5.125 L 3.484375 -2.4375 C 3.359375 -2.375 3.3125 -2.34375 3.3125 -2.234375 C 3.3125 -2.125 3.390625 -2.078125 3.46875 -2.03125 L 8.296875 0.640625 C 8.40625 0.703125 8.453125 0.703125 8.484375 0.703125 C 8.59375 0.703125 8.671875 0.609375 8.671875 0.515625 C 8.671875 0.40625 8.609375 0.390625 8.484375 0.3125 L 3.90625 -2.234375 Z M 8.484375 -4.78125 "/>
</g>
<g id="glyph-9-0">
<path d="M 1.265625 -0.765625 L 2.3125 -1.78125 C 3.859375 -3.15625 4.453125 -3.6875 4.453125 -4.6875 C 4.453125 -5.8125 3.5625 -6.609375 2.34375 -6.609375 C 1.234375 -6.609375 0.5 -5.6875 0.5 -4.8125 C 0.5 -4.25 0.984375 -4.25 1.015625 -4.25 C 1.1875 -4.25 1.53125 -4.375 1.53125 -4.78125 C 1.53125 -5.046875 1.359375 -5.296875 1.015625 -5.296875 C 0.9375 -5.296875 0.90625 -5.296875 0.890625 -5.28125 C 1.109375 -5.9375 1.640625 -6.296875 2.21875 -6.296875 C 3.125 -6.296875 3.546875 -5.5 3.546875 -4.6875 C 3.546875 -3.890625 3.0625 -3.109375 2.515625 -2.484375 L 0.609375 -0.359375 C 0.5 -0.265625 0.5 -0.234375 0.5 0 L 4.171875 0 L 4.453125 -1.71875 L 4.203125 -1.71875 C 4.15625 -1.421875 4.09375 -0.984375 3.984375 -0.84375 C 3.921875 -0.765625 3.265625 -0.765625 3.046875 -0.765625 Z M 1.265625 -0.765625 "/>
</g>
<g id="glyph-10-0">
<path d="M 3.828125 0 L 5.140625 0 L 5.140625 -6.875 L 3.828125 -6.875 L 3.828125 -4.4375 C 3.484375 -4.9375 3.046875 -5.1875 2.421875 -5.1875 C 1.203125 -5.1875 0.28125 -4.015625 0.28125 -2.46875 C 0.28125 -1.78125 0.484375 -1.078125 0.828125 -0.59375 C 1.171875 -0.109375 1.796875 0.21875 2.421875 0.21875 C 3.046875 0.21875 3.484375 -0.015625 3.828125 -0.515625 Z M 2.703125 -4.078125 C 3.375 -4.078125 3.828125 -3.421875 3.828125 -2.453125 C 3.828125 -1.53125 3.375 -0.890625 2.703125 -0.890625 C 2.046875 -0.890625 1.59375 -1.53125 1.59375 -2.46875 C 1.59375 -3.421875 2.046875 -4.078125 2.703125 -4.078125 Z M 2.703125 -4.078125 "/>
</g>
<g id="glyph-10-1">
<path d="M 1.953125 -5.09375 L 0.625 -5.09375 L 0.625 0 L 1.953125 0 Z M 1.953125 -6.875 L 0.625 -6.875 L 0.625 -5.703125 L 1.953125 -5.703125 Z M 1.953125 -6.875 "/>
</g>
<g id="glyph-10-2">
<path d="M 4.765625 -3.453125 C 4.75 -4.53125 3.921875 -5.1875 2.546875 -5.1875 C 1.25 -5.1875 0.453125 -4.53125 0.453125 -3.484375 C 0.453125 -3.140625 0.5625 -2.84375 0.734375 -2.65625 C 0.921875 -2.46875 1.078125 -2.390625 1.5625 -2.234375 L 3.140625 -1.734375 C 3.46875 -1.625 3.59375 -1.53125 3.59375 -1.328125 C 3.59375 -1.015625 3.21875 -0.828125 2.609375 -0.828125 C 2.265625 -0.828125 1.984375 -0.890625 1.828125 -1 C 1.6875 -1.109375 1.625 -1.203125 1.5625 -1.484375 L 0.28125 -1.484375 C 0.3125 -0.375 1.125 0.21875 2.6875 0.21875 C 3.390625 0.21875 3.921875 0.0625 4.296875 -0.234375 C 4.6875 -0.53125 4.90625 -1.015625 4.90625 -1.515625 C 4.90625 -2.171875 4.578125 -2.59375 3.90625 -2.796875 L 2.234375 -3.28125 C 1.875 -3.390625 1.78125 -3.46875 1.78125 -3.671875 C 1.78125 -3.953125 2.078125 -4.140625 2.53125 -4.140625 C 3.171875 -4.140625 3.484375 -3.921875 3.484375 -3.453125 Z M 4.765625 -3.453125 "/>
</g>
<g id="glyph-10-3">
<path d="M 1.984375 -5.09375 L 0.65625 -5.09375 L 0.65625 0.59375 C 0.65625 0.890625 0.5625 0.984375 0.28125 0.984375 C 0.1875 0.984375 0.125 0.984375 0.03125 0.953125 L 0.03125 2.015625 C 0.296875 2.03125 0.625 2.0625 0.828125 2.0625 C 1.640625 2.0625 1.984375 1.71875 1.984375 0.890625 Z M 1.984375 -6.875 L 0.65625 -6.875 L 0.65625 -5.703125 L 1.984375 -5.703125 Z M 1.984375 -6.875 "/>
</g>
<g id="glyph-10-4">
<path d="M 2.84375 -5.1875 C 1.28125 -5.1875 0.328125 -4.15625 0.328125 -2.484375 C 0.328125 -0.796875 1.28125 0.21875 2.84375 0.21875 C 4.390625 0.21875 5.375 -0.8125 5.375 -2.4375 C 5.375 -4.171875 4.4375 -5.1875 2.84375 -5.1875 Z M 2.84375 -4.109375 C 3.578125 -4.109375 4.046875 -3.46875 4.046875 -2.46875 C 4.046875 -1.515625 3.5625 -0.84375 2.84375 -0.84375 C 2.140625 -0.84375 1.65625 -1.515625 1.65625 -2.484375 C 1.65625 -3.453125 2.140625 -4.109375 2.84375 -4.109375 Z M 2.84375 -4.109375 "/>
</g>
<g id="glyph-10-5">
<path d="M 0.59375 -5.09375 L 0.59375 0 L 1.921875 0 L 1.921875 -3.0625 C 1.921875 -3.65625 2.34375 -4.0625 2.984375 -4.0625 C 3.546875 -4.0625 3.828125 -3.75 3.828125 -3.140625 L 3.828125 0 L 5.15625 0 L 5.15625 -3.421875 C 5.15625 -4.546875 4.53125 -5.1875 3.4375 -5.1875 C 2.75 -5.1875 2.296875 -4.921875 1.921875 -4.359375 L 1.921875 -5.09375 Z M 0.59375 -5.09375 "/>
</g>
<g id="glyph-10-6">
<path d="M 2.84375 -5 L 2.109375 -5 L 2.109375 -6.359375 L 0.78125 -6.359375 L 0.78125 -5 L 0.125 -5 L 0.125 -4.109375 L 0.78125 -4.109375 L 0.78125 -0.984375 C 0.78125 -0.171875 1.203125 0.21875 2.078125 0.21875 C 2.375 0.21875 2.609375 0.1875 2.84375 0.109375 L 2.84375 -0.8125 C 2.703125 -0.796875 2.640625 -0.78125 2.53125 -0.78125 C 2.1875 -0.78125 2.109375 -0.890625 2.109375 -1.34375 L 2.109375 -4.109375 L 2.84375 -4.109375 Z M 2.84375 -5 "/>
</g>
<g id="glyph-10-7">
<path d="M 1.875 -5.09375 L 0.546875 -5.09375 L 0.546875 2.0625 L 1.875 2.0625 L 1.875 -0.609375 C 2.1875 -0.03125 2.640625 0.21875 3.28125 0.21875 C 4.515625 0.21875 5.421875 -0.921875 5.421875 -2.46875 C 5.421875 -3.1875 5.203125 -3.90625 4.875 -4.375 C 4.53125 -4.859375 3.890625 -5.1875 3.28125 -5.1875 C 2.640625 -5.1875 2.1875 -4.90625 1.875 -4.34375 Z M 2.984375 -4.078125 C 3.65625 -4.078125 4.09375 -3.421875 4.09375 -2.453125 C 4.09375 -1.53125 3.640625 -0.875 2.984375 -0.875 C 2.328125 -0.875 1.875 -1.515625 1.875 -2.46875 C 1.875 -3.421875 2.328125 -4.078125 2.984375 -4.078125 Z M 2.984375 -4.078125 "/>
</g>
<g id="glyph-10-8">
<path d="M 4.9375 -0.15625 C 4.703125 -0.375 4.640625 -0.515625 4.640625 -0.78125 L 4.640625 -3.609375 C 4.640625 -4.65625 3.9375 -5.1875 2.5625 -5.1875 C 1.1875 -5.1875 0.46875 -4.59375 0.375 -3.421875 L 1.65625 -3.421875 C 1.71875 -3.9375 1.9375 -4.109375 2.578125 -4.109375 C 3.09375 -4.109375 3.34375 -3.9375 3.34375 -3.609375 C 3.34375 -3.4375 3.265625 -3.28125 3.125 -3.203125 C 2.9375 -3.109375 2.9375 -3.109375 2.296875 -3.015625 L 1.765625 -2.921875 C 0.75 -2.75 0.265625 -2.234375 0.265625 -1.3125 C 0.265625 -0.875 0.390625 -0.515625 0.625 -0.265625 C 0.921875 0.03125 1.359375 0.21875 1.8125 0.21875 C 2.375 0.21875 2.890625 -0.03125 3.359375 -0.515625 C 3.359375 -0.25 3.390625 -0.15625 3.515625 0 L 4.9375 0 Z M 3.34375 -2.046875 C 3.34375 -1.28125 2.96875 -0.84375 2.296875 -0.84375 C 1.859375 -0.84375 1.578125 -1.078125 1.578125 -1.46875 C 1.578125 -1.859375 1.796875 -2.046875 2.34375 -2.15625 L 2.796875 -2.25 C 3.140625 -2.3125 3.203125 -2.328125 3.34375 -2.40625 Z M 3.34375 -2.046875 "/>
</g>
<g id="glyph-10-9">
<path d="M 0.59375 -5.09375 L 0.59375 0 L 1.921875 0 L 1.921875 -2.703125 C 1.921875 -3.484375 2.296875 -3.875 3.078125 -3.875 C 3.21875 -3.875 3.3125 -3.859375 3.484375 -3.828125 L 3.484375 -5.171875 C 3.421875 -5.1875 3.375 -5.1875 3.328125 -5.1875 C 2.734375 -5.1875 2.203125 -4.78125 1.921875 -4.09375 L 1.921875 -5.09375 Z M 0.59375 -5.09375 "/>
</g>
</g>
<clipPath id="clip-0">
<path clip-rule="nonzero" d="M 0.554688 0 L 452.535156 0 L 452.535156 254.238281 L 0.554688 254.238281 Z M 0.554688 0 "/>
</clipPath>
</defs>
<g clip-path="url(#clip-0)">
<path fill-rule="nonzero" fill="rgb(6.27594%, 9.411621%, 15.684509%)" fill-opacity="1" d="M 0.554688 254.238281 L 0.554688 -0.00390625 L 452.539062 -0.00390625 L 452.539062 254.238281 Z M 0.554688 254.238281 "/>
</g>
<path fill-rule="nonzero" fill="rgb(9.020996%, 12.548828%, 19.999695%)" fill-opacity="1" d="M 16.089844 226.789062 L 16.089844 27.449219 C 16.089844 20.867188 21.425781 15.535156 28.003906 15.535156 L 425.089844 15.535156 C 431.667969 15.535156 437.003906 20.867188 437.003906 27.449219 L 437.003906 226.789062 C 437.003906 233.367188 431.667969 238.703125 425.089844 238.703125 L 28.003906 238.703125 C 21.425781 238.703125 16.089844 233.367188 16.089844 226.789062 Z M 16.089844 226.789062 "/>
<g fill="rgb(59.606934%, 63.526917%, 70.196533%)" fill-opacity="1">
<use xlink:href="#glyph-0-0" x="37.967239" y="84.869587"/>
</g>
<g fill="rgb(59.606934%, 63.526917%, 70.196533%)" fill-opacity="1">
<use xlink:href="#glyph-1-0" x="43.656476" y="84.869587"/>
</g>
<g fill="rgb(59.606934%, 63.526917%, 70.196533%)" fill-opacity="1">
<use xlink:href="#glyph-1-1" x="53.355077" y="84.869587"/>
</g>
<path fill-rule="nonzero" fill="rgb(86.022949%, 91.529846%, 98.162842%)" fill-opacity="1" stroke-width="0.59776" stroke-linecap="round" stroke-linejoin="round" stroke="rgb(45.646667%, 67.0578%, 92.861938%)" stroke-opacity="1" stroke-miterlimit="10" d="M 72.285303 166.970555 L 72.285303 178.859171 C 72.285303 179.960622 73.175088 180.854326 74.276539 180.854326 L 86.733519 180.854326 C 87.83497 180.854326 88.724755 179.960622 88.724755 178.859171 L 88.724755 166.970555 C 88.724755 165.869103 87.83497 164.979319 86.733519 164.979319 L 74.276539 164.979319 C 73.175088 164.979319 72.285303 165.869103 72.285303 166.970555 Z M 72.285303 166.970555 " transform="matrix(0.996555, 0, 0, -0.996555, 0.553586, 254.239039)"/>
<g fill="rgb(91.764832%, 94.900513%, 98.429871%)" fill-opacity="1">
<use xlink:href="#glyph-2-0" x="78.434335" y="84.651341"/>
</g>
<path fill-rule="nonzero" fill="rgb(86.022949%, 91.529846%, 98.162842%)" fill-opacity="1" stroke-width="0.59776" stroke-linecap="round" stroke-linejoin="round" stroke="rgb(45.646667%, 67.0578%, 92.861938%)" stroke-opacity="1" stroke-miterlimit="10" d="M 92.695466 166.970555 L 92.695466 178.859171 C 92.695466 179.960622 93.585251 180.854326 94.686702 180.854326 L 107.143683 180.854326 C 108.245134 180.854326 109.134918 179.960622 109.134918 178.859171 L 109.134918 166.970555 C 109.134918 165.869103 108.245134 164.979319 107.143683 164.979319 L 94.686702 164.979319 C 93.585251 164.979319 92.695466 165.869103 92.695466 166.970555 Z M 92.695466 166.970555 " transform="matrix(0.996555, 0, 0, -0.996555, 0.553586, 254.239039)"/>
<g fill="rgb(91.764832%, 94.900513%, 98.429871%)" fill-opacity="1">
<use xlink:href="#glyph-2-0" x="98.774016" y="84.651341"/>
</g>
<path fill-rule="nonzero" fill="rgb(86.022949%, 91.529846%, 98.162842%)" fill-opacity="1" stroke-width="0.59776" stroke-linecap="round" stroke-linejoin="round" stroke="rgb(45.646667%, 67.0578%, 92.861938%)" stroke-opacity="1" stroke-miterlimit="10" d="M 113.10563 166.970555 L 113.10563 178.859171 C 113.10563 179.960622 113.995414 180.854326 115.096865 180.854326 L 127.553846 180.854326 C 128.651377 180.854326 129.545081 179.960622 129.545081 178.859171 L 129.545081 166.970555 C 129.545081 165.869103 128.651377 164.979319 127.553846 164.979319 L 115.096865 164.979319 C 113.995414 164.979319 113.10563 165.869103 113.10563 166.970555 Z M 113.10563 166.970555 " transform="matrix(0.996555, 0, 0, -0.996555, 0.553586, 254.239039)"/>
<g fill="rgb(91.764832%, 94.900513%, 98.429871%)" fill-opacity="1">
<use xlink:href="#glyph-2-0" x="119.112701" y="84.651341"/>
</g>
<path fill-rule="nonzero" fill="rgb(86.022949%, 91.529846%, 98.162842%)" fill-opacity="1" stroke-width="0.59776" stroke-linecap="round" stroke-linejoin="round" stroke="rgb(45.646667%, 67.0578%, 92.861938%)" stroke-opacity="1" stroke-miterlimit="10" d="M 133.511873 166.970555 L 133.511873 178.859171 C 133.511873 179.960622 134.405577 180.854326 135.507028 180.854326 L 147.964009 180.854326 C 149.06154 180.854326 149.955244 179.960622 149.955244 178.859171 L 149.955244 166.970555 C 149.955244 165.869103 149.06154 164.979319 147.964009 164.979319 L 135.507028 164.979319 C 134.405577 164.979319 133.511873 165.869103 133.511873 166.970555 Z M 133.511873 166.970555 " transform="matrix(0.996555, 0, 0, -0.996555, 0.553586, 254.239039)"/>
<g fill="rgb(91.764832%, 94.900513%, 98.429871%)" fill-opacity="1">
<use xlink:href="#glyph-2-0" x="139.452382" y="84.651341"/>
</g>
<g fill="rgb(59.606934%, 63.526917%, 70.196533%)" fill-opacity="1">
<use xlink:href="#glyph-0-0" x="37.967239" y="113.117926"/>
</g>
<g fill="rgb(59.606934%, 63.526917%, 70.196533%)" fill-opacity="1">
<use xlink:href="#glyph-1-0" x="43.656476" y="113.117926"/>
</g>
<g fill="rgb(59.606934%, 63.526917%, 70.196533%)" fill-opacity="1">
<use xlink:href="#glyph-1-2" x="53.355077" y="113.117926"/>
</g>
<path fill-rule="nonzero" fill="rgb(86.022949%, 91.529846%, 98.162842%)" fill-opacity="1" stroke-width="0.59776" stroke-linecap="round" stroke-linejoin="round" stroke="rgb(45.646667%, 67.0578%, 92.861938%)" stroke-opacity="1" stroke-miterlimit="10" d="M 72.285303 138.622888 L 72.285303 150.511504 C 72.285303 151.612955 73.175088 152.506659 74.276539 152.506659 L 86.733519 152.506659 C 87.83497 152.506659 88.724755 151.612955 88.724755 150.511504 L 88.724755 138.622888 C 88.724755 137.525357 87.83497 136.631653 86.733519 136.631653 L 74.276539 136.631653 C 73.175088 136.631653 72.285303 137.525357 72.285303 138.622888 Z M 72.285303 138.622888 " transform="matrix(0.996555, 0, 0, -0.996555, 0.553586, 254.239039)"/>
<g fill="rgb(91.764832%, 94.900513%, 98.429871%)" fill-opacity="1">
<use xlink:href="#glyph-2-0" x="78.434335" y="112.900677"/>
</g>
<path fill-rule="nonzero" fill="rgb(86.022949%, 91.529846%, 98.162842%)" fill-opacity="1" stroke-width="0.59776" stroke-linecap="round" stroke-linejoin="round" stroke="rgb(45.646667%, 67.0578%, 92.861938%)" stroke-opacity="1" stroke-miterlimit="10" d="M 92.695466 138.622888 L 92.695466 150.511504 C 92.695466 151.612955 93.585251 152.506659 94.686702 152.506659 L 107.143683 152.506659 C 108.245134 152.506659 109.134918 151.612955 109.134918 150.511504 L 109.134918 138.622888 C 109.134918 137.525357 108.245134 136.631653 107.143683 136.631653 L 94.686702 136.631653 C 93.585251 136.631653 92.695466 137.525357 92.695466 138.622888 Z M 92.695466 138.622888 " transform="matrix(0.996555, 0, 0, -0.996555, 0.553586, 254.239039)"/>
<g fill="rgb(91.764832%, 94.900513%, 98.429871%)" fill-opacity="1">
<use xlink:href="#glyph-2-0" x="98.774016" y="112.900677"/>
</g>
<path fill-rule="nonzero" fill="rgb(86.022949%, 91.529846%, 98.162842%)" fill-opacity="1" stroke-width="0.59776" stroke-linecap="round" stroke-linejoin="round" stroke="rgb(45.646667%, 67.0578%, 92.861938%)" stroke-opacity="1" stroke-miterlimit="10" d="M 113.10563 138.622888 L 113.10563 150.511504 C 113.10563 151.612955 113.995414 152.506659 115.096865 152.506659 L 127.553846 152.506659 C 128.651377 152.506659 129.545081 151.612955 129.545081 150.511504 L 129.545081 138.622888 C 129.545081 137.525357 128.651377 136.631653 127.553846 136.631653 L 115.096865 136.631653 C 113.995414 136.631653 113.10563 137.525357 113.10563 138.622888 Z M 113.10563 138.622888 " transform="matrix(0.996555, 0, 0, -0.996555, 0.553586, 254.239039)"/>
<g fill="rgb(91.764832%, 94.900513%, 98.429871%)" fill-opacity="1">
<use xlink:href="#glyph-2-0" x="119.112701" y="112.900677"/>
</g>
<path fill-rule="nonzero" fill="rgb(86.022949%, 91.529846%, 98.162842%)" fill-opacity="1" stroke-width="0.59776" stroke-linecap="round" stroke-linejoin="round" stroke="rgb(45.646667%, 67.0578%, 92.861938%)" stroke-opacity="1" stroke-miterlimit="10" d="M 133.511873 138.622888 L 133.511873 150.511504 C 133.511873 151.612955 134.405577 152.506659 135.507028 152.506659 L 147.964009 152.506659 C 149.06154 152.506659 149.955244 151.612955 149.955244 150.511504 L 149.955244 138.622888 C 149.955244 137.525357 149.06154 136.631653 147.964009 136.631653 L 135.507028 136.631653 C 134.405577 136.631653 133.511873 137.525357 133.511873 138.622888 Z M 133.511873 138.622888 " transform="matrix(0.996555, 0, 0, -0.996555, 0.553586, 254.239039)"/>
<g fill="rgb(91.764832%, 94.900513%, 98.429871%)" fill-opacity="1">
<use xlink:href="#glyph-2-1" x="139.452382" y="112.900677"/>
</g>
<g fill="rgb(59.606934%, 63.526917%, 70.196533%)" fill-opacity="1">
<use xlink:href="#glyph-0-0" x="37.967239" y="141.367262"/>
</g>
<g fill="rgb(59.606934%, 63.526917%, 70.196533%)" fill-opacity="1">
<use xlink:href="#glyph-1-0" x="43.656476" y="141.367262"/>
</g>
<g fill="rgb(59.606934%, 63.526917%, 70.196533%)" fill-opacity="1">
<use xlink:href="#glyph-1-3" x="53.355077" y="141.367262"/>
</g>
<path fill-rule="nonzero" fill="rgb(86.022949%, 91.529846%, 98.162842%)" fill-opacity="1" stroke-width="0.59776" stroke-linecap="round" stroke-linejoin="round" stroke="rgb(45.646667%, 67.0578%, 92.861938%)" stroke-opacity="1" stroke-miterlimit="10" d="M 72.285303 110.279141 L 72.285303 122.167757 C 72.285303 123.265289 73.175088 124.158993 74.276539 124.158993 L 86.733519 124.158993 C 87.83497 124.158993 88.724755 123.265289 88.724755 122.167757 L 88.724755 110.279141 C 88.724755 109.17769 87.83497 108.283986 86.733519 108.283986 L 74.276539 108.283986 C 73.175088 108.283986 72.285303 109.17769 72.285303 110.279141 Z M 72.285303 110.279141 " transform="matrix(0.996555, 0, 0, -0.996555, 0.553586, 254.239039)"/>
<g fill="rgb(91.764832%, 94.900513%, 98.429871%)" fill-opacity="1">
<use xlink:href="#glyph-2-0" x="78.434335" y="141.149016"/>
</g>
<path fill-rule="nonzero" fill="rgb(86.022949%, 91.529846%, 98.162842%)" fill-opacity="1" stroke-width="0.59776" stroke-linecap="round" stroke-linejoin="round" stroke="rgb(45.646667%, 67.0578%, 92.861938%)" stroke-opacity="1" stroke-miterlimit="10" d="M 92.695466 110.279141 L 92.695466 122.167757 C 92.695466 123.265289 93.585251 124.158993 94.686702 124.158993 L 107.143683 124.158993 C 108.245134 124.158993 109.134918 123.265289 109.134918 122.167757 L 109.134918 110.279141 C 109.134918 109.17769 108.245134 108.283986 107.143683 108.283986 L 94.686702 108.283986 C 93.585251 108.283986 92.695466 109.17769 92.695466 110.279141 Z M 92.695466 110.279141 " transform="matrix(0.996555, 0, 0, -0.996555, 0.553586, 254.239039)"/>
<g fill="rgb(91.764832%, 94.900513%, 98.429871%)" fill-opacity="1">
<use xlink:href="#glyph-2-0" x="98.774016" y="141.149016"/>
</g>
<path fill-rule="nonzero" fill="rgb(86.022949%, 91.529846%, 98.162842%)" fill-opacity="1" stroke-width="0.59776" stroke-linecap="round" stroke-linejoin="round" stroke="rgb(45.646667%, 67.0578%, 92.861938%)" stroke-opacity="1" stroke-miterlimit="10" d="M 113.10563 110.279141 L 113.10563 122.167757 C 113.10563 123.265289 113.995414 124.158993 115.096865 124.158993 L 127.553846 124.158993 C 128.651377 124.158993 129.545081 123.265289 129.545081 122.167757 L 129.545081 110.279141 C 129.545081 109.17769 128.651377 108.283986 127.553846 108.283986 L 115.096865 108.283986 C 113.995414 108.283986 113.10563 109.17769 113.10563 110.279141 Z M 113.10563 110.279141 " transform="matrix(0.996555, 0, 0, -0.996555, 0.553586, 254.239039)"/>
<g fill="rgb(91.764832%, 94.900513%, 98.429871%)" fill-opacity="1">
<use xlink:href="#glyph-2-1" x="119.112701" y="141.149016"/>
</g>
<path fill-rule="nonzero" fill="rgb(86.022949%, 91.529846%, 98.162842%)" fill-opacity="1" stroke-width="0.59776" stroke-linecap="round" stroke-linejoin="round" stroke="rgb(45.646667%, 67.0578%, 92.861938%)" stroke-opacity="1" stroke-miterlimit="10" d="M 133.511873 110.279141 L 133.511873 122.167757 C 133.511873 123.265289 134.405577 124.158993 135.507028 124.158993 L 147.964009 124.158993 C 149.06154 124.158993 149.955244 123.265289 149.955244 122.167757 L 149.955244 110.279141 C 149.955244 109.17769 149.06154 108.283986 147.964009 108.283986 L 135.507028 108.283986 C 134.405577 108.283986 133.511873 109.17769 133.511873 110.279141 Z M 133.511873 110.279141 " transform="matrix(0.996555, 0, 0, -0.996555, 0.553586, 254.239039)"/>
<g fill="rgb(91.764832%, 94.900513%, 98.429871%)" fill-opacity="1">
<use xlink:href="#glyph-2-0" x="139.452382" y="141.149016"/>
</g>
<g fill="rgb(59.606934%, 63.526917%, 70.196533%)" fill-opacity="1">
<use xlink:href="#glyph-0-0" x="37.967239" y="169.615601"/>
</g>
<g fill="rgb(59.606934%, 63.526917%, 70.196533%)" fill-opacity="1">
<use xlink:href="#glyph-1-0" x="43.656476" y="169.615601"/>
</g>
<g fill="rgb(59.606934%, 63.526917%, 70.196533%)" fill-opacity="1">
<use xlink:href="#glyph-1-4" x="53.355077" y="169.615601"/>
</g>
<path fill-rule="nonzero" fill="rgb(86.022949%, 91.529846%, 98.162842%)" fill-opacity="1" stroke-width="0.59776" stroke-linecap="round" stroke-linejoin="round" stroke="rgb(45.646667%, 67.0578%, 92.861938%)" stroke-opacity="1" stroke-miterlimit="10" d="M 72.285303 81.931475 L 72.285303 93.820091 C 72.285303 94.921542 73.175088 95.811326 74.276539 95.811326 L 86.733519 95.811326 C 87.83497 95.811326 88.724755 94.921542 88.724755 93.820091 L 88.724755 81.931475 C 88.724755 80.830023 87.83497 79.936319 86.733519 79.936319 L 74.276539 79.936319 C 73.175088 79.936319 72.285303 80.830023 72.285303 81.931475 Z M 72.285303 81.931475 " transform="matrix(0.996555, 0, 0, -0.996555, 0.553586, 254.239039)"/>
<g fill="rgb(91.764832%, 94.900513%, 98.429871%)" fill-opacity="1">
<use xlink:href="#glyph-2-0" x="78.434335" y="169.398352"/>
</g>
<path fill-rule="nonzero" fill="rgb(86.022949%, 91.529846%, 98.162842%)" fill-opacity="1" stroke-width="0.59776" stroke-linecap="round" stroke-linejoin="round" stroke="rgb(45.646667%, 67.0578%, 92.861938%)" stroke-opacity="1" stroke-miterlimit="10" d="M 92.695466 81.931475 L 92.695466 93.820091 C 92.695466 94.921542 93.585251 95.811326 94.686702 95.811326 L 107.143683 95.811326 C 108.245134 95.811326 109.134918 94.921542 109.134918 93.820091 L 109.134918 81.931475 C 109.134918 80.830023 108.245134 79.936319 107.143683 79.936319 L 94.686702 79.936319 C 93.585251 79.936319 92.695466 80.830023 92.695466 81.931475 Z M 92.695466 81.931475 " transform="matrix(0.996555, 0, 0, -0.996555, 0.553586, 254.239039)"/>
<g fill="rgb(91.764832%, 94.900513%, 98.429871%)" fill-opacity="1">
<use xlink:href="#glyph-2-0" x="98.774016" y="169.398352"/>
</g>
<path fill-rule="nonzero" fill="rgb(86.022949%, 91.529846%, 98.162842%)" fill-opacity="1" stroke-width="0.59776" stroke-linecap="round" stroke-linejoin="round" stroke="rgb(45.646667%, 67.0578%, 92.861938%)" stroke-opacity="1" stroke-miterlimit="10" d="M 113.10563 81.931475 L 113.10563 93.820091 C 113.10563 94.921542 113.995414 95.811326 115.096865 95.811326 L 127.553846 95.811326 C 128.651377 95.811326 129.545081 94.921542 129.545081 93.820091 L 129.545081 81.931475 C 129.545081 80.830023 128.651377 79.936319 127.553846 79.936319 L 115.096865 79.936319 C 113.995414 79.936319 113.10563 80.830023 113.10563 81.931475 Z M 113.10563 81.931475 " transform="matrix(0.996555, 0, 0, -0.996555, 0.553586, 254.239039)"/>
<g fill="rgb(91.764832%, 94.900513%, 98.429871%)" fill-opacity="1">
<use xlink:href="#glyph-2-1" x="119.112701" y="169.398352"/>
</g>
<path fill-rule="nonzero" fill="rgb(86.022949%, 91.529846%, 98.162842%)" fill-opacity="1" stroke-width="0.59776" stroke-linecap="round" stroke-linejoin="round" stroke="rgb(45.646667%, 67.0578%, 92.861938%)" stroke-opacity="1" stroke-miterlimit="10" d="M 133.511873 81.931475 L 133.511873 93.820091 C 133.511873 94.921542 134.405577 95.811326 135.507028 95.811326 L 147.964009 95.811326 C 149.06154 95.811326 149.955244 94.921542 149.955244 93.820091 L 149.955244 81.931475 C 149.955244 80.830023 149.06154 79.936319 147.964009 79.936319 L 135.507028 79.936319 C 134.405577 79.936319 133.511873 80.830023 133.511873 81.931475 Z M 133.511873 81.931475 " transform="matrix(0.996555, 0, 0, -0.996555, 0.553586, 254.239039)"/>
<g fill="rgb(91.764832%, 94.900513%, 98.429871%)" fill-opacity="1">
<use xlink:href="#glyph-2-1" x="139.452382" y="169.398352"/>
</g>
<g fill="rgb(59.606934%, 63.526917%, 70.196533%)" fill-opacity="1">
<use xlink:href="#glyph-3-0" x="108.635921" y="64.645506"/>
<use xlink:href="#glyph-3-1" x="110.471353" y="64.645506"/>
<use xlink:href="#glyph-3-2" x="114.142218" y="64.645506"/>
<use xlink:href="#glyph-3-3" x="116.340775" y="64.645506"/>
<use xlink:href="#glyph-3-4" x="120.01164" y="64.645506"/>
<use xlink:href="#glyph-3-0" x="123.682505" y="64.645506"/>
</g>
<g fill="rgb(59.606934%, 63.526917%, 70.196533%)" fill-opacity="1">
<use xlink:href="#glyph-3-5" x="127.353369" y="64.645506"/>
<use xlink:href="#glyph-3-6" x="131.024234" y="64.645506"/>
<use xlink:href="#glyph-3-0" x="132.489939" y="64.645506"/>
</g>
<g fill="rgb(59.606934%, 63.526917%, 70.196533%)" fill-opacity="1">
<use xlink:href="#glyph-4-0" x="136.160111" y="64.645506"/>
</g>
<g fill="rgb(59.606934%, 63.526917%, 70.196533%)" fill-opacity="1">
<use xlink:href="#glyph-5-0" x="142.30788" y="64.645506"/>
</g>
<g fill="rgb(59.606934%, 63.526917%, 70.196533%)" fill-opacity="1">
<use xlink:href="#glyph-5-1" x="150.661508" y="64.645506"/>
</g>
<path fill="none" stroke-width="1.0959" stroke-linecap="round" stroke-linejoin="round" stroke="rgb(85.096741%, 34.902954%, 14.901733%)" stroke-opacity="1" stroke-miterlimit="10" d="M 131.528477 183.688309 L 131.528477 78.521288 " transform="matrix(0.996555, 0, 0, -0.996555, 0.553586, 254.239039)"/>
<path fill-rule="nonzero" fill="rgb(22.3526%, 52.938843%, 89.802551%)" fill-opacity="1" d="M 174.851562 86.851562 L 174.851562 76.988281 C 174.851562 75.34375 176.183594 74.007812 177.828125 74.007812 L 198.992188 74.007812 C 200.636719 74.007812 201.96875 75.34375 201.96875 76.988281 L 201.96875 86.851562 C 201.96875 88.496094 200.636719 89.828125 198.992188 89.828125 L 177.828125 89.828125 C 176.183594 89.828125 174.851562 88.496094 174.851562 86.851562 Z M 174.851562 86.851562 "/>
<g fill="rgb(100%, 100%, 100%)" fill-opacity="1">
<use xlink:href="#glyph-0-1" x="183.34364" y="84.155057"/>
</g>
<g fill="rgb(100%, 100%, 100%)" fill-opacity="1">
<use xlink:href="#glyph-6-0" x="189.334927" y="85.147626"/>
</g>
<path fill-rule="nonzero" fill="rgb(9.803772%, 61.959839%, 43.920898%)" fill-opacity="1" d="M 341.519531 86.851562 L 341.519531 76.988281 C 341.519531 75.34375 342.855469 74.007812 344.5 74.007812 L 365.660156 74.007812 C 367.308594 74.007812 368.640625 75.34375 368.640625 76.988281 L 368.640625 86.851562 C 368.640625 88.496094 367.308594 89.828125 365.660156 89.828125 L 344.5 89.828125 C 342.855469 89.828125 341.519531 88.496094 341.519531 86.851562 Z M 341.519531 86.851562 "/>
<g fill="rgb(100%, 100%, 100%)" fill-opacity="1">
<use xlink:href="#glyph-0-1" x="350.011432" y="84.155057"/>
</g>
<g fill="rgb(100%, 100%, 100%)" fill-opacity="1">
<use xlink:href="#glyph-6-1" x="356.002719" y="85.147626"/>
</g>
<path fill="none" stroke-width="1.1457" stroke-linecap="round" stroke-linejoin="round" stroke="rgb(85.096741%, 34.902954%, 14.901733%)" stroke-opacity="1" stroke-miterlimit="10" d="M 204.098817 172.916823 L 334.215077 172.916823 " transform="matrix(0.996555, 0, 0, -0.996555, 0.553586, 254.239039)"/>
<path fill-rule="nonzero" fill="rgb(85.096741%, 34.902954%, 14.901733%)" fill-opacity="1" stroke-width="1.1457" stroke-linecap="round" stroke-linejoin="miter" stroke="rgb(85.096741%, 34.902954%, 14.901733%)" stroke-opacity="1" stroke-miterlimit="10" d="M 3.586853 0.00112251 C 3.14392 0.110876 1.207561 0.753715 0.000276945 1.447512 L 0.000276945 -1.449187 C 1.207561 -0.75147 3.14392 -0.11255 3.586853 0.00112251 Z M 3.586853 0.00112251 " transform="matrix(0.996555, 0, 0, -0.996555, 333.616912, 81.919087)"/>
<g fill="rgb(91.764832%, 94.900513%, 98.429871%)" fill-opacity="1">
<use xlink:href="#glyph-5-1" x="256.888379" y="76.737701"/>
</g>
<g fill="rgb(91.764832%, 94.900513%, 98.429871%)" fill-opacity="1">
<use xlink:href="#glyph-7-0" x="261.29801" y="76.737701"/>
</g>
<g fill="rgb(91.764832%, 94.900513%, 98.429871%)" fill-opacity="1">
<use xlink:href="#glyph-5-1" x="267.955198" y="76.737701"/>
</g>
<g fill="rgb(91.764832%, 94.900513%, 98.429871%)" fill-opacity="1">
<use xlink:href="#glyph-3-3" x="273.748526" y="76.737701"/>
<use xlink:href="#glyph-3-1" x="277.419391" y="76.737701"/>
<use xlink:href="#glyph-3-0" x="281.090255" y="76.737701"/>
<use xlink:href="#glyph-3-4" x="282.925687" y="76.737701"/>
</g>
<path fill-rule="nonzero" fill="rgb(22.3526%, 52.938843%, 89.802551%)" fill-opacity="1" d="M 174.851562 115.097656 L 174.851562 105.238281 C 174.851562 103.59375 176.183594 102.257812 177.828125 102.257812 L 198.992188 102.257812 C 200.636719 102.257812 201.96875 103.59375 201.96875 105.238281 L 201.96875 115.097656 C 201.96875 116.746094 200.636719 118.078125 198.992188 118.078125 L 177.828125 118.078125 C 176.183594 118.078125 174.851562 116.746094 174.851562 115.097656 Z M 174.851562 115.097656 "/>
<g fill="rgb(100%, 100%, 100%)" fill-opacity="1">
<use xlink:href="#glyph-0-1" x="183.34364" y="112.404393"/>
</g>
<g fill="rgb(100%, 100%, 100%)" fill-opacity="1">
<use xlink:href="#glyph-6-2" x="189.334927" y="113.396961"/>
</g>
<path fill-rule="nonzero" fill="rgb(9.803772%, 61.959839%, 43.920898%)" fill-opacity="1" d="M 341.519531 115.097656 L 341.519531 105.238281 C 341.519531 103.59375 342.855469 102.257812 344.5 102.257812 L 365.660156 102.257812 C 367.308594 102.257812 368.640625 103.59375 368.640625 105.238281 L 368.640625 115.097656 C 368.640625 116.746094 367.308594 118.078125 365.660156 118.078125 L 344.5 118.078125 C 342.855469 118.078125 341.519531 116.746094 341.519531 115.097656 Z M 341.519531 115.097656 "/>
<g fill="rgb(100%, 100%, 100%)" fill-opacity="1">
<use xlink:href="#glyph-0-1" x="350.011432" y="112.404393"/>
</g>
<g fill="rgb(100%, 100%, 100%)" fill-opacity="1">
<use xlink:href="#glyph-6-3" x="356.002719" y="113.396961"/>
</g>
<path fill="none" stroke-width="1.1457" stroke-linecap="round" stroke-linejoin="round" stroke="rgb(85.096741%, 34.902954%, 14.901733%)" stroke-opacity="1" stroke-miterlimit="10" d="M 204.098817 144.569156 L 334.215077 144.569156 " transform="matrix(0.996555, 0, 0, -0.996555, 0.553586, 254.239039)"/>
<path fill-rule="nonzero" fill="rgb(85.096741%, 34.902954%, 14.901733%)" fill-opacity="1" stroke-width="1.1457" stroke-linecap="round" stroke-linejoin="miter" stroke="rgb(85.096741%, 34.902954%, 14.901733%)" stroke-opacity="1" stroke-miterlimit="10" d="M 3.586853 0.000255936 C 3.14392 0.113929 1.207561 0.752849 0.000276945 1.446645 L 0.000276945 -1.446134 C 1.207561 -0.752337 3.14392 -0.113417 3.586853 0.000255936 Z M 3.586853 0.000255936 " transform="matrix(0.996555, 0, 0, -0.996555, 333.616912, 110.168224)"/>
<g fill="rgb(91.764832%, 94.900513%, 98.429871%)" fill-opacity="1">
<use xlink:href="#glyph-5-1" x="256.888379" y="104.987036"/>
</g>
<g fill="rgb(91.764832%, 94.900513%, 98.429871%)" fill-opacity="1">
<use xlink:href="#glyph-7-0" x="261.29801" y="104.987036"/>
</g>
<g fill="rgb(91.764832%, 94.900513%, 98.429871%)" fill-opacity="1">
<use xlink:href="#glyph-5-1" x="267.955198" y="104.987036"/>
</g>
<g fill="rgb(91.764832%, 94.900513%, 98.429871%)" fill-opacity="1">
<use xlink:href="#glyph-3-3" x="273.748526" y="104.987036"/>
<use xlink:href="#glyph-3-1" x="277.419391" y="104.987036"/>
<use xlink:href="#glyph-3-0" x="281.090255" y="104.987036"/>
<use xlink:href="#glyph-3-4" x="282.925687" y="104.987036"/>
</g>
<path fill-rule="nonzero" fill="rgb(22.3526%, 52.938843%, 89.802551%)" fill-opacity="1" d="M 174.851562 143.347656 L 174.851562 133.484375 C 174.851562 131.839844 176.183594 130.507812 177.828125 130.507812 L 198.992188 130.507812 C 200.636719 130.507812 201.96875 131.839844 201.96875 133.484375 L 201.96875 143.347656 C 201.96875 144.992188 200.636719 146.328125 198.992188 146.328125 L 177.828125 146.328125 C 176.183594 146.328125 174.851562 144.992188 174.851562 143.347656 Z M 174.851562 143.347656 "/>
<g fill="rgb(100%, 100%, 100%)" fill-opacity="1">
<use xlink:href="#glyph-0-1" x="183.34364" y="140.652732"/>
</g>
<g fill="rgb(100%, 100%, 100%)" fill-opacity="1">
<use xlink:href="#glyph-6-4" x="189.334927" y="141.645301"/>
</g>
<path fill-rule="nonzero" fill="rgb(9.803772%, 61.959839%, 43.920898%)" fill-opacity="1" d="M 341.519531 143.347656 L 341.519531 133.484375 C 341.519531 131.839844 342.855469 130.507812 344.5 130.507812 L 365.660156 130.507812 C 367.308594 130.507812 368.640625 131.839844 368.640625 133.484375 L 368.640625 143.347656 C 368.640625 144.992188 367.308594 146.328125 365.660156 146.328125 L 344.5 146.328125 C 342.855469 146.328125 341.519531 144.992188 341.519531 143.347656 Z M 341.519531 143.347656 "/>
<g fill="rgb(100%, 100%, 100%)" fill-opacity="1">
<use xlink:href="#glyph-0-1" x="350.011432" y="140.652732"/>
</g>
<g fill="rgb(100%, 100%, 100%)" fill-opacity="1">
<use xlink:href="#glyph-6-5" x="356.002719" y="141.645301"/>
</g>
<path fill="none" stroke-width="1.1457" stroke-linecap="round" stroke-linejoin="round" stroke="rgb(85.096741%, 34.902954%, 14.901733%)" stroke-opacity="1" stroke-miterlimit="10" d="M 204.098817 116.221489 L 334.215077 116.221489 " transform="matrix(0.996555, 0, 0, -0.996555, 0.553586, 254.239039)"/>
<path fill-rule="nonzero" fill="rgb(85.096741%, 34.902954%, 14.901733%)" fill-opacity="1" stroke-width="1.1457" stroke-linecap="round" stroke-linejoin="miter" stroke="rgb(85.096741%, 34.902954%, 14.901733%)" stroke-opacity="1" stroke-miterlimit="10" d="M 3.586853 -0.000590634 C 3.14392 0.113082 1.207561 0.752002 0.000276945 1.445799 L 0.000276945 -1.44698 C 1.207561 -0.753184 3.14392 -0.114264 3.586853 -0.000590634 Z M 3.586853 -0.000590634 " transform="matrix(0.996555, 0, 0, -0.996555, 333.616912, 138.41738)"/>
<g fill="rgb(91.764832%, 94.900513%, 98.429871%)" fill-opacity="1">
<use xlink:href="#glyph-5-1" x="256.888379" y="133.235376"/>
</g>
<g fill="rgb(91.764832%, 94.900513%, 98.429871%)" fill-opacity="1">
<use xlink:href="#glyph-7-0" x="261.29801" y="133.235376"/>
</g>
<g fill="rgb(91.764832%, 94.900513%, 98.429871%)" fill-opacity="1">
<use xlink:href="#glyph-5-1" x="267.955198" y="133.235376"/>
</g>
<g fill="rgb(91.764832%, 94.900513%, 98.429871%)" fill-opacity="1">
<use xlink:href="#glyph-3-3" x="273.748526" y="133.235376"/>
<use xlink:href="#glyph-3-1" x="277.419391" y="133.235376"/>
<use xlink:href="#glyph-3-0" x="281.090255" y="133.235376"/>
<use xlink:href="#glyph-3-4" x="282.925687" y="133.235376"/>
</g>
<path fill-rule="nonzero" fill="rgb(22.3526%, 52.938843%, 89.802551%)" fill-opacity="1" d="M 174.851562 171.597656 L 174.851562 161.734375 C 174.851562 160.089844 176.183594 158.757812 177.828125 158.757812 L 198.992188 158.757812 C 200.636719 158.757812 201.96875 160.089844 201.96875 161.734375 L 201.96875 171.597656 C 201.96875 173.242188 200.636719 174.578125 198.992188 174.578125 L 177.828125 174.578125 C 176.183594 174.578125 174.851562 173.242188 174.851562 171.597656 Z M 174.851562 171.597656 "/>
<g fill="rgb(100%, 100%, 100%)" fill-opacity="1">
<use xlink:href="#glyph-0-1" x="183.34364" y="168.901071"/>
</g>
<g fill="rgb(100%, 100%, 100%)" fill-opacity="1">
<use xlink:href="#glyph-6-6" x="189.334927" y="169.894636"/>
</g>
<path fill-rule="nonzero" fill="rgb(9.803772%, 61.959839%, 43.920898%)" fill-opacity="1" d="M 341.519531 171.597656 L 341.519531 161.734375 C 341.519531 160.089844 342.855469 158.757812 344.5 158.757812 L 365.660156 158.757812 C 367.308594 158.757812 368.640625 160.089844 368.640625 161.734375 L 368.640625 171.597656 C 368.640625 173.242188 367.308594 174.578125 365.660156 174.578125 L 344.5 174.578125 C 342.855469 174.578125 341.519531 173.242188 341.519531 171.597656 Z M 341.519531 171.597656 "/>
<g fill="rgb(100%, 100%, 100%)" fill-opacity="1">
<use xlink:href="#glyph-0-1" x="350.011432" y="168.901071"/>
</g>
<g fill="rgb(100%, 100%, 100%)" fill-opacity="1">
<use xlink:href="#glyph-6-7" x="356.002719" y="169.894636"/>
</g>
<path fill="none" stroke-width="1.1457" stroke-linecap="round" stroke-linejoin="round" stroke="rgb(85.096741%, 34.902954%, 14.901733%)" stroke-opacity="1" stroke-miterlimit="10" d="M 204.098817 87.873823 L 334.215077 87.873823 " transform="matrix(0.996555, 0, 0, -0.996555, 0.553586, 254.239039)"/>
<path fill-rule="nonzero" fill="rgb(85.096741%, 34.902954%, 14.901733%)" fill-opacity="1" stroke-width="1.1457" stroke-linecap="round" stroke-linejoin="miter" stroke="rgb(85.096741%, 34.902954%, 14.901733%)" stroke-opacity="1" stroke-miterlimit="10" d="M 3.586853 -0.0014472 C 3.14392 0.112226 1.207561 0.751146 0.000276945 1.448862 L 0.000276945 -1.447837 C 1.207561 -0.75012 3.14392 -0.1112 3.586853 -0.0014472 Z M 3.586853 -0.0014472 " transform="matrix(0.996555, 0, 0, -0.996555, 333.616912, 166.666527)"/>
<g fill="rgb(91.764832%, 94.900513%, 98.429871%)" fill-opacity="1">
<use xlink:href="#glyph-5-1" x="256.888379" y="161.483715"/>
</g>
<g fill="rgb(91.764832%, 94.900513%, 98.429871%)" fill-opacity="1">
<use xlink:href="#glyph-7-0" x="261.29801" y="161.483715"/>
</g>
<g fill="rgb(91.764832%, 94.900513%, 98.429871%)" fill-opacity="1">
<use xlink:href="#glyph-5-1" x="267.955198" y="161.483715"/>
</g>
<g fill="rgb(91.764832%, 94.900513%, 98.429871%)" fill-opacity="1">
<use xlink:href="#glyph-3-3" x="273.748526" y="161.483715"/>
<use xlink:href="#glyph-3-1" x="277.419391" y="161.483715"/>
<use xlink:href="#glyph-3-0" x="281.090255" y="161.483715"/>
<use xlink:href="#glyph-3-4" x="282.925687" y="161.483715"/>
</g>
<g fill="rgb(59.606934%, 63.526917%, 70.196533%)" fill-opacity="1">
<use xlink:href="#glyph-0-2" x="36.38172" y="201.387757"/>
</g>
<g fill="rgb(59.606934%, 63.526917%, 70.196533%)" fill-opacity="1">
<use xlink:href="#glyph-6-0" x="41.2469" y="202.380326"/>
</g>
<g fill="rgb(59.606934%, 63.526917%, 70.196533%)" fill-opacity="1">
<use xlink:href="#glyph-1-0" x="47.934779" y="201.387757"/>
</g>
<g fill="rgb(59.606934%, 63.526917%, 70.196533%)" fill-opacity="1">
<use xlink:href="#glyph-1-5" x="57.624443" y="201.387757"/>
<use xlink:href="#glyph-1-6" x="60.175531" y="201.387757"/>
<use xlink:href="#glyph-1-7" x="65.277706" y="201.387757"/>
<use xlink:href="#glyph-1-8" x="68.900161" y="201.387757"/>
<use xlink:href="#glyph-1-9" x="72.985475" y="201.387757"/>
<use xlink:href="#glyph-1-10" x="76.577549" y="201.387757"/>
<use xlink:href="#glyph-1-1" x="80.149072" y="201.387757"/>
<use xlink:href="#glyph-1-11" x="84.741029" y="201.387757"/>
</g>
<g fill="rgb(59.606934%, 63.526917%, 70.196533%)" fill-opacity="1">
<use xlink:href="#glyph-0-0" x="88.312552" y="201.387757"/>
<use xlink:href="#glyph-0-3" x="91.45517" y="201.387757"/>
</g>
<g fill="rgb(59.606934%, 63.526917%, 70.196533%)" fill-opacity="1">
<use xlink:href="#glyph-0-4" x="95.543165" y="201.387757"/>
</g>
<g fill="rgb(59.606934%, 63.526917%, 70.196533%)" fill-opacity="1">
<use xlink:href="#glyph-1-12" x="99.968028" y="201.387757"/>
</g>
<g fill="rgb(59.606934%, 63.526917%, 70.196533%)" fill-opacity="1">
<use xlink:href="#glyph-0-2" x="174.801173" y="201.387757"/>
</g>
<g fill="rgb(59.606934%, 63.526917%, 70.196533%)" fill-opacity="1">
<use xlink:href="#glyph-6-2" x="179.666353" y="202.380326"/>
</g>
<g fill="rgb(59.606934%, 63.526917%, 70.196533%)" fill-opacity="1">
<use xlink:href="#glyph-1-0" x="186.354232" y="201.387757"/>
</g>
<g fill="rgb(59.606934%, 63.526917%, 70.196533%)" fill-opacity="1">
<use xlink:href="#glyph-0-2" x="196.043896" y="201.387757"/>
</g>
<g fill="rgb(59.606934%, 63.526917%, 70.196533%)" fill-opacity="1">
<use xlink:href="#glyph-6-0" x="200.912899" y="202.380326"/>
</g>
<g fill="rgb(59.606934%, 63.526917%, 70.196533%)" fill-opacity="1">
<use xlink:href="#glyph-8-0" x="206.580305" y="201.387757"/>
</g>
<g fill="rgb(59.606934%, 63.526917%, 70.196533%)" fill-opacity="1">
<use xlink:href="#glyph-1-11" x="210.659365" y="201.387757"/>
<use xlink:href="#glyph-1-2" x="214.230887" y="201.387757"/>
</g>
<g fill="rgb(59.606934%, 63.526917%, 70.196533%)" fill-opacity="1">
<use xlink:href="#glyph-8-1" x="221.3784" y="201.387757"/>
</g>
<g fill="rgb(59.606934%, 63.526917%, 70.196533%)" fill-opacity="1">
<use xlink:href="#glyph-0-4" x="233.108935" y="201.387757"/>
</g>
<g fill="rgb(59.606934%, 63.526917%, 70.196533%)" fill-opacity="1">
<use xlink:href="#glyph-1-12" x="237.533799" y="201.387757"/>
</g>
<g fill="rgb(91.764832%, 94.900513%, 98.429871%)" fill-opacity="1">
<use xlink:href="#glyph-9-0" x="332.864712" y="202.337474"/>
</g>
<g fill="rgb(91.764832%, 94.900513%, 98.429871%)" fill-opacity="1">
<use xlink:href="#glyph-4-1" x="337.829547" y="198.733932"/>
</g>
<g fill="rgb(91.764832%, 94.900513%, 98.429871%)" fill-opacity="1">
<use xlink:href="#glyph-7-1" x="344.862023" y="198.733932"/>
</g>
<g fill="rgb(91.764832%, 94.900513%, 98.429871%)" fill-opacity="1">
<use xlink:href="#glyph-5-2" x="351.067475" y="198.733932"/>
</g>
<g fill="rgb(91.764832%, 94.900513%, 98.429871%)" fill-opacity="1">
<use xlink:href="#glyph-10-0" x="358.144315" y="202.337474"/>
<use xlink:href="#glyph-10-1" x="363.907201" y="202.337474"/>
<use xlink:href="#glyph-10-2" x="366.529267" y="202.337474"/>
<use xlink:href="#glyph-10-3" x="371.773398" y="202.337474"/>
<use xlink:href="#glyph-10-4" x="374.395464" y="202.337474"/>
<use xlink:href="#glyph-10-1" x="380.15835" y="202.337474"/>
<use xlink:href="#glyph-10-5" x="382.780416" y="202.337474"/>
<use xlink:href="#glyph-10-6" x="388.543302" y="202.337474"/>
</g>
<g fill="rgb(91.764832%, 94.900513%, 98.429871%)" fill-opacity="1">
<use xlink:href="#glyph-10-7" x="394.306188" y="202.337474"/>
<use xlink:href="#glyph-10-8" x="400.069074" y="202.337474"/>
<use xlink:href="#glyph-10-1" x="405.313206" y="202.337474"/>
<use xlink:href="#glyph-10-9" x="407.935272" y="202.337474"/>
</g>
<g fill="rgb(91.764832%, 94.900513%, 98.429871%)" fill-opacity="1">
<use xlink:href="#glyph-10-2" x="411.462799" y="202.337474"/>
</g>
</svg>
